<?xml version="1.0" encoding="utf-8"?>
<!-- Generator: Adobe Illustrator 16.0.0, SVG Export Plug-In . SVG Version: 6.00 Build 0)  -->
<!DOCTYPE svg PUBLIC "-//W3C//DTD SVG 1.1//EN" "http://www.w3.org/Graphics/SVG/1.1/DTD/svg11.dtd">
<svg version="1.1" id="Layer_1" xmlns="http://www.w3.org/2000/svg" xmlns:xlink="http://www.w3.org/1999/xlink" x="0px" y="0px"
	 width="500px" height="500px" viewBox="0 0 500 500" style="enable-background:new 0 0 500 500;" xml:space="preserve">
<style type="text/css">
<![CDATA[
	.st0{fill:#FFFFFF;}
]]>
</style>
<path class="st0" d="M16.268,178.32V67.21C16.268,27.956,24.553,0,74.842,0h17.254c35.494,0,48.32,27.957,48.32,67.57v21.878H87.182
	v-35.39c0-3.132-2.676-5.83-5.79-5.83c-3.748,0-6.66,2.698-6.66,5.83V187.28c0,3.8,3.31,6.115,6.335,6.115h59.347v49.938h-71.09
	c-34.7,0-53.056-25.827-53.056-65.015V178.32z M154.826,193.75V51.99c0-34.707,16.78-51.562,51.59-51.562h27.573
	c34.712,0,51.556,16.854,51.556,51.562v141.76c0,34.79-16.844,51.647-51.558,51.647h-27.573c-34.81,0-51.59-16.857-51.59-51.646
	L154.826,193.75z M213.4,190.27c0,3.63,2.976,6.542,6.932,6.542c3.697,0,6.65-2.913,6.65-6.543V55.234c0-3.74-2.953-6.58-7.008-6.58
	c-3.597,0-6.573,2.838-6.573,6.58L213.4,190.27L213.4,190.27z M140.81,310.686v43.787c0,34.707-13.54,51.634-48.255,51.634H74.668
	V500H16.194V259.12h76.36C127.269,259.12,140.811,275.941,140.81,310.686L140.81,310.686z M86.65,312.15
	c0-3.631-2.78-6.617-6.115-6.617H74.52v57.006l6.015,0.043c3.334,0,6.115-2.92,6.115-6.55V312.15L86.65,312.15z M357.48,134.428
	l14.298,108.907h38.967l13.31-108.907v108.907h58.005V2.488h-77.057l-14.263,108.97L376.33,2.49h-76.783v240.847h57.932v-108.91
	L357.48,134.428z M302.697,402.098h35.356v-50.014h-35.356v-44.09h37.095v-49.266h-90.66v240.887h91.33v-49.938h-37.765V402.098
	L302.697,402.098z M209.914,258.729H151.66v240.888h86.52v-49.938h-28.266V258.729z M453.074,375l30.337-116.27h-50.851
	l-12.55,60.89l-10.18-60.89h-58.18l29.899,124.439l-30.793,116.218H402l12.24-61.873l10.767,61.873h58.8L453.074,375z"/>
</svg>
