<?xml version="1.0" encoding="utf-8"?>
<!-- Generator: Adobe Illustrator 16.0.0, SVG Export Plug-In . SVG Version: 6.00 Build 0)  -->
<!DOCTYPE svg PUBLIC "-//W3C//DTD SVG 1.1//EN" "http://www.w3.org/Graphics/SVG/1.1/DTD/svg11.dtd">
<svg version="1.1" id="Layer_1" xmlns="http://www.w3.org/2000/svg" xmlns:xlink="http://www.w3.org/1999/xlink" x="0px" y="0px"
	 width="265.923px" height="82px" viewBox="0 0 265.923 82" style="enable-background:new 0 0 265.923 82;" xml:space="preserve">
<style type="text/css">
<![CDATA[
	.st0{fill-rule:evenodd;clip-rule:evenodd;}
	.st1{fill:#FFFFFF;}
	.st2{fill-rule:evenodd;clip-rule:evenodd;fill:#FFFFFF;}
]]>
</style>
<g>
	<g>
		<path class="st1" d="M64.923,0c67,0,134,0,201,0c0,27.333,0,54.666,0,82c-67,0-134,0-201,0C64.923,54.666,64.923,27.333,64.923,0z
			 M217.476,11.056c0,19.951,0,39.3,0,58.509c3.324,0,6.232,0,9.626,0c0-7.936,0-15.52,0-22.917
			c5.015-1.599,7.958-0.191,10.028,4.228c2.038,4.35,4.783,8.367,7.213,12.533c4.279,7.333,5.775,7.927,14.874,5.69
			c-4.69-8.088-9.339-16.103-14.101-24.314c1.172-0.849,2.111-1.478,2.993-2.179c5.841-4.637,7.976-13.425,5.212-21.373
			c-2.311-6.641-7.44-10.063-15.498-10.161C231.173,10.992,224.522,11.056,217.476,11.056z M124.119,69.849
			c7.462,0,14.447,0.343,21.384-0.087c8.733-0.541,15.814-7.775,16.279-16.736c0.43-8.293,0.396-16.639,0.026-24.938
			c-0.381-8.547-6.882-15.928-15.168-16.693c-7.368-0.681-14.849-0.143-22.521-0.143C124.119,30.826,124.119,50.048,124.119,69.849z
			 M80.514,69.75c0.893-2.735,2.006-5.342,2.566-8.062c0.75-3.639,3.119-3.621,6.147-4.039c9.656-1.333,16.345,0.934,16.373,11.94
			c3.998,0,7.21,0,10.871,0c-6.383-19.016-12.543-37.62-19.023-56.112c-0.436-1.243-3.308-2.288-5.006-2.229
			c-1.417,0.048-3.576,1.576-4.035,2.917c-4.359,12.739-8.423,25.579-12.578,38.387c-1.828,5.635-3.669,11.266-5.603,17.197
			C74.007,69.75,77.136,69.75,80.514,69.75z M206.923,11.337c-12.351,0-24.092,0-35.947,0c0,19.616,0,38.938,0,58.301
			c12.189,0,23.93,0,35.773,0c0-3.334,0-6.376,0-10.07c-8.916,0-17.457,0-25.979,0c0-5.379,0-10.087,0-15.375
			c5.514,0,10.583,0,15.648,0c0-3.653,0-6.694,0-10.213c-5.463,0-10.539,0-16.103,0c0-2.445,0.224-4.445-0.044-6.377
			c-0.683-4.921,0.954-6.819,6.213-6.432c6.715,0.494,13.495,0.12,20.438,0.12C206.923,17.554,206.923,14.619,206.923,11.337z"/>
		<path class="st0" d="M64.923,0c0,27.333,0,54.666,0,82C43.308,82,21.692,82,0,82C0,54.782,0,27.564,0,0
			C21.589,0,43.256,0,64.923,0z M10.828,11.11c0,19.847,0,39.21,0,58.661c4.792,0,9.196,0,14.112,0c0-7.863,0-15.434,0-23.59
			c9.217,0,17.933,0,26.663,0c0-4.15,0-7.689,0-11.642c-8.994,0-17.597,0-26.407,0c0-4.154,0-7.886,0-12.348
			c9.799,0,19.332,0,28.721,0c0-4.136,0-7.535,0-11.082C39.428,11.11,25.337,11.11,10.828,11.11z"/>
		<path class="st0" d="M217.476,11.056c7.046,0,13.697-0.064,20.348,0.017c8.058,0.097,13.188,3.52,15.498,10.161
			c2.764,7.947,0.629,16.735-5.212,21.373c-0.882,0.701-1.821,1.33-2.993,2.179c4.762,8.212,9.41,16.227,14.101,24.314
			c-9.099,2.236-10.595,1.643-14.874-5.69c-2.43-4.166-5.175-8.184-7.213-12.533c-2.07-4.419-5.014-5.826-10.028-4.228
			c0,7.397,0,14.981,0,22.917c-3.394,0-6.302,0-9.626,0C217.476,50.355,217.476,31.006,217.476,11.056z M227.34,21.316
			c0,5.293,0,9.841,0,14.461c4.087,0,7.767,0.3,11.378-0.076c4.508-0.469,5.957-3.683,5.831-7.856
			c-0.126-4.181-2.05-6.551-6.435-6.532C234.644,21.328,231.172,21.316,227.34,21.316z"/>
		<path class="st0" d="M124.119,69.849c0-19.801,0-39.022,0-58.597c7.673,0,15.153-0.538,22.521,0.143
			c8.286,0.765,14.787,8.146,15.168,16.693c0.369,8.299,0.403,16.645-0.026,24.938c-0.465,8.961-7.546,16.195-16.279,16.736
			C138.566,70.191,131.581,69.849,124.119,69.849z M134.148,21.478c0,12.95,0,25.434,0,38.319c2.058,0,3.691,0.008,5.326-0.002
			c1.494-0.008,3,0.082,4.48-0.074c4.926-0.523,7.906-3.393,8.069-8.461c0.235-7.297,0.204-14.612-0.018-21.909
			c-0.131-4.319-2.614-7.283-6.976-7.789C141.478,21.149,137.837,21.478,134.148,21.478z"/>
		<path class="st0" d="M80.514,69.75c-3.378,0-6.507,0-10.287,0c1.933-5.932,3.775-11.562,5.603-17.197
			c4.155-12.808,8.219-25.648,12.578-38.387c0.459-1.342,2.617-2.869,4.035-2.917c1.698-0.059,4.57,0.986,5.006,2.229
			c6.48,18.492,12.641,37.097,19.023,56.112c-3.661,0-6.873,0-10.871,0c-0.028-11.007-6.717-13.273-16.373-11.94
			c-3.029,0.418-5.398,0.4-6.147,4.039C82.521,64.408,81.407,67.015,80.514,69.75z M93.756,32.972
			c-0.362-0.053-0.724-0.106-1.086-0.16c-1.588,4.921-3.177,9.842-4.849,15.021c3.842,0,7.093,0,10.87,0
			C96.963,42.627,95.359,37.799,93.756,32.972z"/>
		<path class="st0" d="M206.923,11.337c0,3.281,0,6.217,0,9.953c-6.942,0-13.723,0.374-20.438-0.12
			c-5.259-0.387-6.896,1.511-6.213,6.432c0.268,1.932,0.044,3.933,0.044,6.377c5.563,0,10.64,0,16.103,0c0,3.519,0,6.56,0,10.213
			c-5.065,0-10.135,0-15.648,0c0,5.288,0,9.996,0,15.375c8.521,0,17.062,0,25.979,0c0,3.694,0,6.736,0,10.07
			c-11.844,0-23.584,0-35.773,0c0-19.363,0-38.685,0-58.301C182.832,11.337,194.573,11.337,206.923,11.337z"/>
		<path class="st2" d="M10.828,11.11c14.509,0,28.601,0,43.089,0c0,3.546,0,6.946,0,11.082c-9.389,0-18.922,0-28.721,0
			c0,4.462,0,8.194,0,12.348c8.811,0,17.413,0,26.407,0c0,3.953,0,7.492,0,11.642c-8.729,0-17.445,0-26.663,0
			c0,8.156,0,15.727,0,23.59c-4.917,0-9.32,0-14.112,0C10.828,50.32,10.828,30.957,10.828,11.11z"/>
		<path class="st2" d="M227.34,21.316c3.832,0,7.304,0.012,10.774-0.003c4.385-0.019,6.309,2.351,6.435,6.532
			c0.126,4.173-1.323,7.388-5.831,7.856c-3.611,0.375-7.291,0.076-11.378,0.076C227.34,31.157,227.34,26.609,227.34,21.316z"/>
		<path class="st2" d="M134.148,21.478c3.689,0,7.33-0.329,10.883,0.084c4.361,0.506,6.845,3.47,6.976,7.789
			c0.222,7.297,0.253,14.612,0.018,21.909c-0.163,5.068-3.144,7.938-8.069,8.461c-1.48,0.156-2.986,0.066-4.48,0.074
			c-1.635,0.01-3.269,0.002-5.326,0.002C134.148,46.912,134.148,34.428,134.148,21.478z"/>
		<path class="st2" d="M93.756,32.972c1.603,4.828,3.207,9.655,4.935,14.86c-3.777,0-7.028,0-10.87,0
			c1.671-5.179,3.26-10.1,4.849-15.021C93.032,32.865,93.394,32.918,93.756,32.972z"/>
	</g>
</g>
</svg>
