<?xml version="1.0" encoding="utf-8"?>
<!-- Generator: Adobe Illustrator 16.0.0, SVG Export Plug-In . SVG Version: 6.00 Build 0)  -->
<!DOCTYPE svg PUBLIC "-//W3C//DTD SVG 1.1//EN" "http://www.w3.org/Graphics/SVG/1.1/DTD/svg11.dtd">
<svg version="1.1" id="logo" xmlns="http://www.w3.org/2000/svg" xmlns:xlink="http://www.w3.org/1999/xlink" x="0px" y="0px"
	 width="714.091px" height="108.55px" viewBox="2.955 549.226 714.091 108.55"
	 enable-background="new 2.955 549.226 714.091 108.55" xml:space="preserve">
<path fill="#FFE100" d="M28.947,656.244H2.955V549.226h69.257v24.922H28.947v19.109h43.237v24.312H28.947V656.244z"/>
<path fill="#FFE100" d="M79.096,621.848v-72.621h26.141v72.466c0,16.052,30.275,15.749,30.275,0v-72.466h26.141v72.621
	c0,24.154-20.793,36.08-41.432,35.927C99.581,657.773,79.096,646,79.096,621.848z"/>
<path fill="#FFE100" d="M168.531,656.244V549.226h20.183l36.999,53.509v-53.509h25.837v107.018h-20.485l-36.538-52.131v52.131
	L168.531,656.244L168.531,656.244z"/>
<path fill="#FFE100" d="M258.496,656.244V549.226h20.181l36.999,53.509v-53.509h25.839v107.018h-20.489l-36.539-52.131v52.131
	L258.496,656.244L258.496,656.244z"/>
<path fill="#FFE100" d="M410.964,612.98v43.264h-26.146v-43.111l-39.854-63.906h30.225l10.701,17.122l12.079,21.865l12.691-23.239
	l9.783-15.748h30.573L410.964,612.98z"/>
<path fill="#3FB1EA" d="M488.705,580.091h19.374v13.898h-57.229v-22.238c0-22.727,28.039-26.078,36.463-8.498l20.766-14.026v16.637
	L488.705,577.8V580.091L488.705,580.091z M476.032,580.091v-8.013c0-8.421-11.774-8.5-11.774,0v8.013H476.032z"/>
<path fill="#ED1C24" d="M555.139,549.226c35.316,0,53.052,26.907,53.052,53.661s-17.736,53.356-53.052,53.356h-40.361V549.226
	H555.139z M555.139,631.322c18.039,0,27.214-14.371,27.214-28.435c0-14.066-9.175-28.895-27.214-28.895h-14.371v57.33
	L555.139,631.322L555.139,631.322z"/>
<path fill="#ED1C24" d="M613.332,656.244V549.226h26.144v107.018L613.332,656.244L613.332,656.244z"/>
<path fill="#ED1C24" d="M672.712,631.02h44.334v25.224h-70.631V549.226h70.478v25.227h-44.181v15.597h44.156v25.375h-44.156V631.02
	L672.712,631.02z"/>
<path fill="#3FB1EA" d="M479.424,597.392c-16.279,0-29.473,13.193-29.473,29.47c0,16.277,13.194,29.47,29.473,29.47
	c16.274,0,29.47-13.192,29.47-29.47C508.895,610.585,495.699,597.392,479.424,597.392z M479.424,643.033
	c-8.933,0-16.171-7.237-16.171-16.171s7.238-16.171,16.171-16.171c8.932,0,16.172,7.237,16.172,16.171
	S488.355,643.033,479.424,643.033z"/>
</svg>
