<?xml version="1.0" encoding="utf-8"?>
<!-- Generator: Adobe Illustrator 16.0.0, SVG Export Plug-In . SVG Version: 6.00 Build 0)  -->
<!DOCTYPE svg PUBLIC "-//W3C//DTD SVG 1.1//EN" "http://www.w3.org/Graphics/SVG/1.1/DTD/svg11.dtd">
<svg version="1.1" id="Layer_1" xmlns="http://www.w3.org/2000/svg" xmlns:xlink="http://www.w3.org/1999/xlink" x="0px" y="0px"
	 width="673.11px" height="100.155px" viewBox="0 0 673.11 100.155" style="enable-background:new 0 0 673.11 100.155;"
	 xml:space="preserve">
<style type="text/css">
<![CDATA[
	.st0{fill-rule:evenodd;clip-rule:evenodd;fill:#BD7F62;}
	.st1{fill-rule:evenodd;clip-rule:evenodd;fill:#F26825;}
	.st2{fill-rule:evenodd;clip-rule:evenodd;fill:#F6F4F2;}
	.st3{fill-rule:evenodd;clip-rule:evenodd;fill:#C7B8B0;}
]]>
</style>
<g>
	<g>
		<path class="st1" d="M553.096,1.059c1.893,0.657,0.407,3.059,2,3.871c0.127,5.271,3.254,9.675,4.24,14.743
			c0.758,3.896,2.756,7.54,3.679,11.42c0.899,3.784,2.506,7.309,3.254,11.186c0.953,4.939,3.25,9.608,4.807,14.444
			c2.412,7.496,4.672,15.041,7.026,22.555c1.43,4.564,2.662,9.217,4.509,13.608c0.685,1.628-0.213,3.446,1.375,4.991
			c1.011,0.984-0.043,2.17-1.881,2.176c-5.492,0.017-10.984,0.014-16.477,0.002c-2.099-0.005-3.193-0.703-3.487-2.84
			c-0.624-4.521-2.621-8.576-3.887-12.863c-0.529-1.793-0.756-2.351-2.604-2.334c-9.319,0.088-18.64,0.078-27.958,0.006
			c-1.629-0.014-2.585,0.266-3.128,2.01c-1.372,4.411-2.991,8.744-4.445,13.131c-0.295,0.889,0.018,2.283-0.526,2.707
			c-0.627,0.488-1.892,0.205-2.878,0.178c-2.128-0.058-4.6,0.471-6.28-0.439c-1.554-0.842-2.192-3.294-3.356-4.951
			c-1.19-1.694-2.433-3.373-3.833-4.893c-1.126-1.223-1.3-2.113-0.654-3.824c2.776-7.354,4.132-15.193,7.488-22.365
			c0.458-6.305,3.718-11.809,5.139-17.863c0.803-3.425,1.853-6.864,3.008-10.219c1.111-3.227,2.085-6.474,3.045-9.741
			c1.514-5.152,3.601-10.163,5-15.38c0.924-3.443,2.634-6.672,2.826-10.314c1,0,2,0,3,0c0.009,1.35,1.039,0.984,1.76,0.987
			C540.269,1.068,546.683,1.059,553.096,1.059z M541.358,62.059c2.66,0,5.32,0.021,7.98-0.008c1.549-0.018,2.333-1.051,1.716-2.501
			c-2.972-6.979-4.559-14.399-6.956-21.559c-0.685-2.045-1.362-4.094-1.993-6.156c-0.389-1.271-0.867-0.523-1.204-0.048
			c-0.35,0.494-0.553,1.095-0.804,1.656c-1.329,2.97-1.587,6.23-2.855,9.292c-2.112,5.101-2.96,10.68-5.088,15.848
			c-0.987,2.397,0.033,3.453,2.72,3.473C537.035,62.072,539.196,62.059,541.358,62.059z"/>
		<path class="st1" d="M672.096,2.059c-2.116,3.283-4.151,6.622-6.366,9.836c-4.274,6.205-8.493,12.467-12.854,18.587
			c-4.304,6.043-8.136,12.447-12.917,18.144c-0.945,1.126-0.938,1.654-0.056,2.837c2.054,2.752,3.756,5.763,5.71,8.594
			c6.604,9.571,13.531,18.912,19.859,28.685c2.123,3.278,4.793,6.242,6.633,9.757c0.346,0.662,2.009,1.537-0.328,1.553
			c-4.492,0.027-8.984,0.008-13.477,0.008c-2.828,0-5.658-0.049-8.484,0.023c-1.193,0.03-1.283-0.641-1.868-1.504
			c-5.477-8.091-11.31-15.939-16.793-24.027c-4.044-5.966-8.642-11.556-12.119-17.921c-0.942-1.727-2.607-3.059-3.94-4.571
			c-0.117-0.284-0.225-0.574-0.366-0.846c-0.017-0.033-0.321,0.021-0.325,0.053c-0.115,1.122-0.295,2.246-0.296,3.37
			c-0.019,15.142-0.013,30.282-0.013,45.423c-6.333,0-12.667,0-19,0c0-31.311,0-62.62,0-93.93c0-1.166,0.095-2.341-0.024-3.495
			c-0.146-1.429,0.556-1.612,1.742-1.596c3.83,0.053,7.661,0.037,11.491,0.005c0.722-0.006,1.777,0.393,1.791-0.985
			c0.333,0,0.667,0,1,0c0.252,0.333,0.504,0.667,0.756,1c0.415-0.333,0.829-0.667,1.244-1c0.333,0,0.667,0,1,0
			c0,14.975,0,29.95,0,44.925c0,1.165-0.34,2.481,0.093,3.453c0.454,1.02,1.531,1.147,1.907-0.378
			c0.79-2.16,2.722-3.583,3.782-5.445c3.593-6.304,8.173-11.906,12.157-17.923c4.525-6.833,9.32-13.491,14.14-20.121
			c0.878-1.208,0.893-3.241,2.921-3.511c7.079,0,14.158-0.009,21.237,0.013C671.054,1.074,672.086,0.707,672.096,2.059z"/>
		<path class="st1" d="M321.096,0.059c0,5.831,0.009,11.662-0.004,17.492c-0.006,2.46-0.027,2.495-2.279,2.501
			c-6.498,0.019-12.995,0.007-19.492,0.007c-5.831,0-11.662,0.021-17.492-0.018c-1.164-0.008-1.812,0.127-1.763,1.578
			c0.202,6.108,0.29,12.219,0.42,18.33c5.649,0.037,11.298,0.089,16.947,0.106c5.998,0.019,11.995,0.035,17.992-0.021
			c1.259-0.012,1.719,0.302,1.701,1.646c-0.072,5.497-0.084,10.996,0.005,16.493c0.025,1.529-0.437,1.93-1.94,1.92
			c-9.995-0.064-19.991-0.045-29.987-0.021c-1.628,0.004-3.874-0.43-4.711,0.432c-0.854,0.877-0.375,3.102-0.387,4.736
			c-0.03,4.332,0.065,8.666-0.049,12.994c-0.043,1.623,0.583,1.861,2.004,1.855c11.329-0.053,22.657-0.042,33.985-0.016
			c1.622,0.004,3.885-0.398,4.69,0.467c0.847,0.91,0.339,3.118,0.35,4.76c0.026,3.831,0.018,7.663,0.005,11.494
			c-0.011,3.249-0.023,3.26-3.522,3.264c-7.997,0.007-15.993,0.002-23.99,0.002c-11.162,0-22.324,0-33.485,0
			c0-31.316,0-62.633,0-93.949c0-1.166,0.098-2.342-0.024-3.496c-0.155-1.464,0.608-1.579,1.763-1.572
			c6.33,0.036,12.66,0.017,18.989,0.017c11.994,0,23.987,0.015,35.98-0.032c0.8-0.003,2.113,0.707,2.292-0.968
			C319.762,0.059,320.429,0.059,321.096,0.059z"/>
		<path class="st1" d="M223.096,1.059c5.349,0.424,13.486,4.345,17.317,7.719c3.839,3.381,6.102,7.656,8.059,12.188
			c0.609,1.411,1.232,2.907,1.375,4.409c0.267,2.786,0.348,5.614,0.201,8.409c-0.135,2.549,0.312,5.046-0.645,7.702
			c-0.875,2.427-1.014,5.238-2.348,7.525c-3.463,5.939-4.545,8.16-10.771,11.371c-2.2,1.135-4.306,2.463-6.551,3.493
			c-2.252,1.032-4.896,0.774-7.143,2.083c-0.748,0.436-1.951,0.1-2.946,0.1c-5.331,0.004-10.661-0.008-15.992,0.006
			c-2.521,0.008-2.549,0.029-2.553,2.729c-0.013,9.496,0.003,18.99-0.01,28.486c-0.004,2.758-0.031,2.771-3.003,2.778
			c-5.331,0.011-10.661,0.003-15.992,0.003c0-30.666,0-61.333,0-92c-0.017-2.458,1.779-4.128,2.665-6.193
			c0.235-0.549,0.23-1.202,0.335-1.807c0.667,0,1.333,0,2,0c0.171,1.661,1.473,0.965,2.27,0.968
			C200.608,1.073,211.852,1.059,223.096,1.059z M201.096,32.826c0,1.991-0.019,3.982,0.005,5.973
			c0.028,2.303,0.093,4.605,0.142,6.907c2.44,0.118,4.88,0.33,7.32,0.333c4.624,0.006,9.276,0.467,13.641-1.916
			c1.917-1.046,3.79-2.044,5.259-3.911c2.516-3.197,3.518-6.509,1.83-10.526c-1.615-3.843-3.75-6.729-8.127-7.737
			c-1.524-0.351-2.974-0.845-4.585-0.942c-1.701-0.103-3.366-0.808-5.066-0.905c-2.812-0.16-5.641,0.025-8.458-0.072
			c-1.419-0.049-2.053,0.228-1.999,1.848C201.179,25.523,201.096,29.176,201.096,32.826z"/>
		<path class="st1" d="M175.096,1.059c-0.542,3.451-2.376,6.492-4.148,9.241c-3.052,4.734-5.273,9.834-7.823,14.784
			c-3.531,6.854-6.541,13.995-10.375,20.667c-3.247,5.648-6.009,11.522-9.159,17.198c-1.165,2.099-1.526,4.104-1.515,6.387
			c0.048,9.493-0.008,18.987,0.049,28.481c0.009,1.566-0.031,2.385-2.079,2.309c-5.322-0.198-10.658-0.111-15.986-0.037
			c-1.427,0.021-2.015-0.242-2.001-1.857c0.078-9.326-0.111-18.657,0.11-27.979c0.091-3.837-0.788-7.13-2.706-10.412
			c-2.333-3.991-4.259-8.22-6.367-12.344c-6.252-12.233-12.493-24.474-18.775-36.692c-1.204-2.342-2.609-4.58-3.848-6.904
			c-0.282-0.53-0.259-1.222-0.377-1.84c0.013-1.37,1.062-0.982,1.783-0.985c5.478-0.026,10.956-0.003,16.434-0.029
			c0.721-0.003,1.771,0.385,1.783-0.985c0.667,0,1.333,0,2,0c0.117,0.617,0.095,1.305,0.371,1.839
			c4.667,9.044,9.387,18.061,14.059,27.103c1.696,3.283,3.28,6.624,4.957,9.916c0.216,0.423,0.687,0.715,1.04,1.068
			c0.191-0.371,0.382-0.741,0.574-1.111c4.667-9.042,9.191-18.161,14.07-27.086c1.958-3.581,3.101-7.63,5.93-10.729
			C160.429,1.059,167.762,1.059,175.096,1.059z"/>
		<path class="st0" d="M319.096,0.059c-0.179,1.674-1.491,0.964-2.292,0.968c-11.993,0.047-23.987,0.032-35.98,0.032
			c-6.33,0-12.66,0.019-18.989-0.017c-1.155-0.006-1.918,0.108-1.763,1.572c0.122,1.153,0.024,2.33,0.024,3.496
			c0,31.316,0,62.633,0,93.949c-0.333-0.263-0.937-0.508-0.955-0.791c-0.096-1.49-0.045-2.988-0.045-4.484
			c0-31.574,0-63.15,0-94.725C279.096,0.059,299.096,0.059,319.096,0.059z"/>
		<path class="st0" d="M331.096,20.059c-1.348-0.009-0.984-1.038-0.987-1.758c-0.023-6.081-0.013-12.161-0.013-18.242
			c26,0,52,0,78,0c0,6.081,0.01,12.161-0.013,18.242c-0.003,0.72,0.361,1.75-0.987,1.758c0-5.829-0.017-11.658,0.017-17.487
			c0.005-0.967-0.124-1.603-1.295-1.524c-0.829,0.056-1.665,0.011-2.497,0.011c-22.816,0-45.633,0-68.449,0
			c-0.833,0-1.668,0.045-2.498-0.011c-1.17-0.079-1.3,0.557-1.295,1.524C331.112,8.401,331.096,14.229,331.096,20.059z"/>
		<path class="st0" d="M610.096,0.059c-0.014,1.377-1.069,0.979-1.791,0.985c-3.83,0.032-7.661,0.048-11.491-0.005
			c-1.187-0.016-1.888,0.167-1.742,1.596c0.119,1.153,0.024,2.329,0.024,3.495c0,31.31,0,62.619,0,93.93
			c-0.333-0.263-0.932-0.505-0.955-0.792c-0.103-1.321-0.045-2.655-0.045-3.985c0-31.74,0-63.481,0-95.223
			C599.429,0.059,604.763,0.059,610.096,0.059z"/>
		<path class="st2" d="M1.096,100.059c-0.333,0-0.667,0-1,0c0-32.834-0.003-65.667,0.021-98.5c0-0.607-0.618-1.842,0.979-1.5
			c0,0.333,0,0.667,0,1C1.096,34.059,1.096,67.059,1.096,100.059z"/>
		<path class="st0" d="M615.096,0.059c0,15.076-0.02,30.152,0.048,45.228c0.005,0.91-0.988,2.428,0.952,2.772
			c-0.376,1.525-1.453,1.398-1.907,0.378c-0.433-0.972-0.093-2.288-0.093-3.453c0-14.975,0-29.95,0-44.925
			C614.429,0.059,614.763,0.059,615.096,0.059z"/>
		<path class="st0" d="M417.096,1.059c0-0.333,0-0.667,0-1c12.667,0,25.333,0,38,0c0,0.333,0,0.667,0,1
			C442.429,1.059,429.763,1.059,417.096,1.059z"/>
		<path class="st0" d="M223.096,1.059c-11.244,0-22.487,0.015-33.73-0.032c-0.797-0.003-2.098,0.693-2.27-0.968c12,0,24,0,36,0
			C223.096,0.392,223.096,0.725,223.096,1.059z"/>
		<path class="st0" d="M649.096,1.059c0-0.333,0-0.667,0-1c8,0,16,0,24,0c-0.15,0.758,0.496,1.915-1,2
			c-0.01-1.352-1.042-0.985-1.763-0.987C663.254,1.05,656.175,1.059,649.096,1.059z"/>
		<path class="st0" d="M110.096,0.059c-0.013,1.37-1.062,0.982-1.783,0.985c-5.478,0.026-10.956,0.003-16.434,0.029
			c-0.721,0.003-1.771-0.385-1.783,0.985c-1.496-0.085-0.849-1.242-1-2C96.096,0.059,103.096,0.059,110.096,0.059z"/>
		<path class="st0" d="M153.096,1.059c0-0.333,0-0.667,0-1c7.333,0,14.667,0,22,0c0,0.333,0,0.667,0,1
			C167.762,1.059,160.429,1.059,153.096,1.059z"/>
		<path class="st0" d="M553.096,1.059c-6.413,0-12.827,0.009-19.24-0.013c-0.721-0.002-1.751,0.363-1.76-0.987c7,0,14,0,21,0
			C553.096,0.392,553.096,0.725,553.096,1.059z"/>
		<path class="st0" d="M58.096,1.059c0-0.333,0-0.667,0-1c6.667,0,13.333,0,20,0c0,0.333,0,0.667,0,1
			C71.429,1.059,64.762,1.059,58.096,1.059z"/>
		<path class="st0" d="M1.096,1.059c0-0.333,0-0.667,0-1c6.667,0,13.333,0,20,0c0,0.333,0,0.667,0,1
			C14.429,1.059,7.762,1.059,1.096,1.059z"/>
		<path class="st3" d="M455.096,1.059c0-0.333,0-0.667,0-1c1,0,2,0,3,0c0,0.333,0,0.667,0,1
			C457.096,1.059,456.096,1.059,455.096,1.059z"/>
		<path class="st0" d="M613.096,0.059c-0.415,0.333-0.829,0.667-1.244,1c-0.252-0.333-0.504-0.667-0.756-1
			C611.763,0.059,612.429,0.059,613.096,0.059z"/>
		<path class="st1" d="M455.096,1.059c1,0,2,0,3,0c9.151,0.908,16.746,4.953,22.406,12.081c2.353,2.963,3.556,6.792,4.631,10.539
			c1.429,4.984,0.921,10.046,0.91,15.083c-0.005,1.861-0.246,3.892-1.017,5.548c-2.257,4.851-4.163,9.997-8.883,13.238
			c-0.81,0.557-1.379,1.45-2.146,2.084c-1.147,0.949-1.061,1.654-0.097,2.818c1.808,2.182,3.273,4.644,5.003,6.896
			c5.494,7.155,10.158,14.909,15.853,21.924c1.474,1.815,2.628,3.894,3.905,5.866c0.506,0.781,0.947,1.604,1.418,2.408
			c-0.917,0.172-1.834,0.486-2.753,0.492c-6.494,0.043-12.988,0.029-19.483,0.02c-1.402-0.002-2.247-0.111-3.275-1.789
			c-4.194-6.838-9.261-13.107-13.751-19.778c-2.279-3.387-4.784-6.645-6.998-10.108c-0.929-1.453-2.25-2.619-4.499-2.398
			c-3.133,0.309-6.319,0.064-9.483,0.082c-2.717,0.016-2.735,0.032-2.738,3.043c-0.009,9.492,0.004,18.983-0.008,28.475
			c-0.003,2.432-0.029,2.463-2.306,2.473c-5.328,0.02-10.657-0.021-15.985,0.027c-1.207,0.011-1.868-0.205-1.728-1.61
			c0.115-1.154,0.023-2.329,0.023-3.495c0-31.305,0-62.61,0-93.916C429.763,1.059,442.429,1.059,455.096,1.059z M465.096,37.059
			c0.333-0.26,0.945-0.509,0.956-0.781c0.079-2.145,0.079-4.294,0-6.438c-0.011-0.271-0.623-0.521-0.956-0.781
			c-2.757-5.042-3.742-5.445-9.092-7.142c-2.092-0.663-4.276-0.191-6.04-0.968c-3.844-1.693-7.731-0.433-11.557-0.889
			c-1.115-0.133-1.334,0.46-1.33,1.463c0.033,7.616,0.04,15.233-0.003,22.85c-0.007,1.214,0.235,1.744,1.61,1.717
			c4.469-0.085,8.94-0.032,13.411-0.032c0.984-0.381,2.531,0.927,3-1C459.689,43.967,463.342,41.7,465.096,37.059z"/>
		<path class="st1" d="M1.096,1.059c6.667,0,13.333,0,20,0c0,12.324,0.016,24.648-0.023,36.972c-0.004,1.339,0.073,2.08,1.786,2.068
			c11.158-0.078,22.317-0.078,33.475,0c1.713,0.012,1.79-0.729,1.786-2.068c-0.039-12.324-0.023-24.648-0.023-36.972
			c6.667,0,13.333,0,20,0c0.333,0.264,0.917,0.496,0.954,0.796c0.122,0.984,0.046,1.992,0.046,2.99c0,30.459,0,60.918,0,91.377
			c0,0.832-0.047,1.668,0.012,2.496c0.079,1.11-0.438,1.365-1.462,1.358c-5.992-0.038-11.984-0.064-17.975,0.015
			c-1.418,0.02-1.597-0.562-1.593-1.748c0.032-11.152,0.019-22.304,0.019-33.455c0-1.166-0.049-2.333,0.014-3.495
			c0.061-1.114-0.449-1.356-1.469-1.353c-10.819,0.029-21.638-0.001-32.457,0.031c-2.383,0.008-3.068,0.738-3.075,3.27
			c-0.031,10.818-0.013,21.637-0.013,32.456c0,0.999-0.046,2,0.012,2.995c0.069,1.182-0.585,1.285-1.537,1.281
			c-6.158-0.029-12.317-0.016-18.475-0.016C1.096,67.059,1.096,34.059,1.096,1.059z"/>
		<path class="st1" d="M331.096,20.059c0-5.829,0.017-11.658-0.017-17.487c-0.005-0.967,0.125-1.603,1.295-1.524
			c0.829,0.056,1.665,0.011,2.498,0.011c22.816,0,45.632,0,68.449,0c0.832,0,1.668,0.045,2.497-0.011
			c1.171-0.079,1.3,0.557,1.295,1.524c-0.033,5.829-0.017,11.658-0.017,17.487c-7.827,0-15.655-0.001-23.482,0
			c-4.509,0.001-4.515,0.003-4.517,4.269c-0.003,10.659-0.001,21.318-0.001,31.977c0,13.656,0.006,27.313-0.005,40.971
			c-0.002,2.751-0.031,2.807-2.5,2.771c-5.782-0.08-11.562-0.221-17.344-0.337c-0.05-5.642-0.14-11.282-0.145-16.925
			c-0.019-19.318-0.007-38.638-0.007-57.958c0-1.166-0.047-2.334,0.014-3.497c0.061-1.176-0.573-1.291-1.533-1.288
			C348.75,20.069,339.922,20.059,331.096,20.059z"/>
		<path class="st0" d="M182.096,8.059c0,30.667,0,61.334,0,92c-0.333-0.264-0.917-0.496-0.954-0.797
			c-0.122-0.984-0.046-1.992-0.046-2.992c0-28.141-0.021-56.281,0.07-84.422C181.17,10.642,179.954,8.844,182.096,8.059z"/>
		<path class="st0" d="M614.096,100.059c0-15.141-0.006-30.281,0.013-45.423c0.001-1.124,0.181-2.248,0.296-3.37
			c0.004-0.031,0.309-0.086,0.325-0.053c0.142,0.271,0.249,0.562,0.366,0.846c0,15.076,0.02,30.152-0.049,45.229
			C615.043,98.196,616.036,99.715,614.096,100.059z"/>
		<path class="st0" d="M465.096,37.059c0-2.667,0-5.333,0-8c0.333,0.26,0.945,0.509,0.956,0.781c0.079,2.145,0.079,4.294,0,6.438
			C466.041,36.549,465.429,36.799,465.096,37.059z"/>
		<path class="st0" d="M452.096,46.059c0.469-1.927,2.016-0.619,3-1C454.627,46.985,453.08,45.678,452.096,46.059z"/>
	</g>
</g>
</svg>
