<?xml version="1.0" encoding="utf-8"?>
<!-- Generator: Adobe Illustrator 16.0.0, SVG Export Plug-In . SVG Version: 6.00 Build 0)  -->
<!DOCTYPE svg PUBLIC "-//W3C//DTD SVG 1.1//EN" "http://www.w3.org/Graphics/SVG/1.1/DTD/svg11.dtd">
<svg version="1.1" id="Layer_1" xmlns="http://www.w3.org/2000/svg" xmlns:xlink="http://www.w3.org/1999/xlink" x="0px" y="0px"
	 width="240.123px" height="72.122px" viewBox="0 0 240.123 72.122" enable-background="new 0 0 240.123 72.122"
	 xml:space="preserve">
<g>
	<path fill="#FFFFFF" d="M128.96,36.452c2.165-11.602,10.803-19.114,21.96-19.097c10.634,0.016,19.64,7.287,21.333,17.222
		c2,11.737-4.943,22.214-16.596,25.039c-11.295,2.737-22.018-3.416-25.652-14.761c-0.451-1.407-0.701-2.882-1.045-4.325
		C127.886,39.17,127.886,37.811,128.96,36.452z"/>
	<path fill="#FFFFFF" d="M127.299,42.499c-2.786,10.428-9.644,16.387-20.215,17.854c-8,1.109-16.71-4.012-20.881-11.779
		c-5.595-10.419-1.412-23.244,9.405-28.836c10.583-5.471,24.462-1.167,29.536,9.217c0.864,1.771,1.428,3.69,2.131,5.54
		C128.274,37.159,128.237,39.829,127.299,42.499z"/>
	<path fill="#FFFFFF" d="M174.284,33.35c-0.213-6.238,0.658-11.594-1.004-16.813c-0.624-1.96,0.854-3.108,1.939-4.289
		c1.688-1.835,3.527-3.533,5.309-5.284c4.003-3.938,4.697-3.829,7.404,1.358c2.215,4.244,2.588,8.894,2.83,13.562
		c0.096,1.879-1.309,4.524,3.088,3.128c2.008-0.637,4.033,3.019,5.939,4.826c6.812,6.461,6.268,8.486-2.777,11.378
		c-1.959,0.627-5.22-0.303-5.656,1.849c-0.479,2.349,2.045,4.345,3.804,6.095c3.067,3.053,6.045,6.246,9.409,8.943
		c3.296,2.641,2.527,4.414-0.467,6.335c-0.694,0.444-1.262,1.09-1.934,1.576c-2.258,1.637-3.55,5.601-6.074,5.282
		c-2.309-0.287-4.27-3.369-6.381-5.223c-2.629-2.305-5.279-4.586-7.879-6.924C173.709,51.84,173.414,42.278,174.284,33.35z"/>
	<path fill="#FFFFFF" d="M55.082,31.989c-0.286,10.576-1.856,19.544,0.93,28.355c0.38,1.205-0.588,1.799-1.226,2.508
		c-1.225,1.361-2.471,2.705-3.748,4.02c-6.701,6.892-8.314,6.457-11.017-3.139c-2.34-8.309-1.971-16.822-1.517-25.299
		c0.464-8.658,0.94-17.31-0.841-25.866c-0.341-1.639,0.249-2.495,1.208-3.456c2.472-2.474,5.113-4.806,7.353-7.474
		c2.333-2.78,3.658-1.668,5.104,0.716c2.581,4.251,3.551,8.961,3.709,13.808C55.228,21.983,55.082,27.815,55.082,31.989z"/>
	<path fill="#FFFFFF" d="M35.119,35.937c0.219,8.233-1.537,16.552,1.079,24.681c0.382,1.187-0.398,1.844-1.078,2.559
		c-1.715,1.805-3.388,3.652-5.166,5.395c-5.296,5.188-6.275,4.924-9.042-2.307c-2.434-6.357-2.176-13.033-2.186-19.648
		c-0.018-11.108,1.375-22.243-0.673-33.304c-0.307-1.658,0.125-2.876,1.286-4.012c1.425-1.393,2.738-2.901,4.155-4.303
		c6.082-6.017,8.172-5.438,10.462,3.172C36.389,17.313,35.089,26.663,35.119,35.937z"/>
	<path fill="#FFFFFF" d="M59.164,46.579c-2.456-14.406,4.324-24.716,14.91-33.238c2.508-2.02,4.147-6.418,7.138-6.006
		c2.53,0.35,4.644,3.954,6.872,6.187c4.725,4.735,4.686,5.172-0.521,9.689c-0.502,0.436-0.995,0.906-1.564,1.235
		C75.652,30.422,73.457,39.618,75.636,50.56c0.162,0.812,0.264,1.644,0.323,2.472c0.481,6.68,0.253,6.913-6.556,6.916
		c-10.131,0.002-10.132,0.002-10.237-9.875C59.153,48.907,59.164,47.743,59.164,46.579z"/>
	<path fill="#FFFFFF" d="M223.028,40.467c0.582-2.934-1.721-2.26-3.122-2.313c-2.979-0.112-5.97,0.046-8.953,0.063
		c-2.597,0.014-3.427-1.207-2.904-3.773c1.058-5.194,3.562-9.583,7.211-13.304c3.941-4.022,8.15-7.786,12.043-11.852
		c1.697-1.772,2.929-1.012,4.164,0.159c2.646,2.508,5.084,5.237,7.784,7.681c1.9,1.721,0.221,2.632-0.593,3.648
		c-3.837,4.799-8.962,8.329-12.822,13.17c-2.42,3.034-0.797,3.623,1.606,4.401C226.306,39.75,225.062,40.929,223.028,40.467z"/>
	<path fill="#FFFFFF" d="M223.028,40.467c1.264-1.141,2.496-2.344,4.414-2.119c3.148-0.182,6.3-0.338,9.447-0.555
		c2.618-0.182,3.58,0.67,2.91,3.479c-1.23,5.156-3.639,9.617-7.279,13.377c-3.935,4.06-8.137,7.86-12.026,11.959
		c-1.699,1.789-2.901,1.765-4.378-0.022c-1.271-1.537-2.534-3.086-3.913-4.523c-5.313-5.539-5.373-5.568,0.418-10.961
		C216.258,47.713,219.883,44.329,223.028,40.467z"/>
	<path fill="#FFFFFF" d="M16.23,48.943c0,0.332,0.032,0.668-0.005,0.996c-0.361,3.235,1.499,8.462-0.787,9.319
		c-4.081,1.531-9.102,1.234-13.755,0.455c-1.659-0.276-1.624-1.266-1.623-2.465c0.003-5.812,0.046-11.625-0.058-17.434
		c-0.034-1.876,0.469-2.829,2.478-2.598c0.655,0.076,1.327,0.014,1.991,0.009C16.23,37.15,16.23,37.15,16.23,48.943z"/>
	<path fill="#FFFFFF" d="M8.578,25.623c-0.167,0.002-0.333,0.002-0.499,0.002c-8.728,0-9.505-1.245-5.794-9.447
		c0.611-1.35,1.519-2.562,2.188-3.891c1.142-2.265,2.534-2.344,4.198-0.595c2.745,2.885,5.572,5.7,8.181,8.704
		c1.702,1.96,0.343,4.956-2.296,5.191C12.578,25.763,10.571,25.622,8.578,25.623z"/>
	<path fill="#FFFFFF" d="M127.299,42.499c-0.008-2.668-0.016-5.336-0.024-8.005c0.562,0.653,1.123,1.306,1.686,1.958
		c0,1.359,0,2.717,0,4.079C128.407,41.187,127.853,41.842,127.299,42.499z"/>
</g>
</svg>
