<?xml version="1.0" encoding="utf-8"?>
<!-- Generator: Adobe Illustrator 16.0.0, SVG Export Plug-In . SVG Version: 6.00 Build 0)  -->
<!DOCTYPE svg PUBLIC "-//W3C//DTD SVG 1.1//EN" "http://www.w3.org/Graphics/SVG/1.1/DTD/svg11.dtd">
<svg version="1.1" id="Layer_1" xmlns="http://www.w3.org/2000/svg" xmlns:xlink="http://www.w3.org/1999/xlink" x="0px" y="0px"
	 width="197.164px" height="78.861px" viewBox="52.028 35.93 197.164 78.861" enable-background="new 52.028 35.93 197.164 78.861"
	 xml:space="preserve">
<rect x="52.028" y="35.93" fill="#FFFFFF" width="20.2" height="77.731"/>
<path fill="#FFFFFF" d="M142.714,35.93v77.731h-17.618l-0.078-52.482l-7.026,52.482h-12.606l-7.349-51.354l-0.083,51.354H80.338
	V35.93h26.135c0.691,4.721,1.488,10.242,2.42,16.562l2.873,19.736l4.647-36.299H142.714z"/>
<path fill="#FFFFFF" d="M170.962,49.182v51.229c2.878,0,4.653-0.584,5.313-1.761c0.656-1.172,0.994-4.354,0.994-9.541V58.848
	c0-3.529-0.113-5.788-0.338-6.777c-0.227-1-0.727-1.729-1.518-2.19C174.632,49.411,173.148,49.182,170.962,49.182 M150.768,35.93
	h15.084c9.737,0,16.328,0.447,19.758,1.343c3.438,0.899,6.051,2.374,7.834,4.414c1.785,2.057,2.904,4.33,3.354,6.851
	c0.453,2.514,0.68,7.442,0.68,14.803v27.228c0,6.979-0.334,11.641-0.984,13.992c-0.655,2.354-1.795,4.192-3.43,5.526
	c-1.629,1.326-3.641,2.254-6.033,2.789c-2.396,0.524-6,0.787-10.825,0.787H150.77V35.93H150.768z"/>
<path fill="#FFFFFF" d="M229.799,68.112c0-3.283-0.213-5.423-0.635-6.433c-0.422-1.006-1.239-1.511-2.473-1.511
	c-1.202,0-1.983,0.442-2.338,1.312c-0.358,0.879-0.535,3.093-0.535,6.631v27.38c0,3.413,0.203,5.596,0.606,6.553
	c0.4,0.963,1.207,1.433,2.404,1.433c1.229,0,2.028-0.488,2.401-1.479c0.375-0.994,0.563-3.367,0.563-7.136L229.799,68.112
	L229.799,68.112z M223.818,35.93v18.503c1.605-1.874,3.394-3.273,5.361-4.195c1.979-0.917,4.127-1.379,6.438-1.379
	c2.658,0,4.966,0.417,6.928,1.244c1.957,0.838,3.451,2.004,4.477,3.503c1.025,1.504,1.646,2.979,1.857,4.414
	c0.203,1.438,0.312,4.502,0.312,9.202v28.674c0,4.67-0.312,8.146-0.946,10.433c-0.619,2.289-2.099,4.272-4.408,5.948
	c-2.315,1.677-5.06,2.515-8.239,2.515c-2.285,0-4.414-0.5-6.393-1.5c-1.982-1.004-3.794-2.504-5.423-4.496l-1.255,4.867H204.43
	V35.93H223.818z"/>
</svg>
