<?xml version="1.0" encoding="utf-8"?>
<!-- Generator: Adobe Illustrator 16.0.0, SVG Export Plug-In . SVG Version: 6.00 Build 0)  -->
<!DOCTYPE svg PUBLIC "-//W3C//DTD SVG 1.1//EN" "http://www.w3.org/Graphics/SVG/1.1/DTD/svg11.dtd">
<svg version="1.1" id="Layer_1" xmlns="http://www.w3.org/2000/svg" xmlns:xlink="http://www.w3.org/1999/xlink" x="0px" y="0px"
	 width="384.054px" height="384.055px" viewBox="0 0 384.054 384.055" style="enable-background:new 0 0 384.054 384.055;"
	 xml:space="preserve">
<path style="fill:#FFFFFF;" d="M0,345.049C0,243.034,0,141.02,0,39.005c0.253-0.825,0.57-1.639,0.75-2.48
	C4.746,17.898,15.977,6.156,34.337,1.19c1.55-0.419,3.112-0.795,4.668-1.19c102.015,0,204.03,0,306.043,0
	c0.699,0.238,1.381,0.557,2.1,0.703c18.842,3.846,30.682,15.119,35.711,33.625c0.422,1.553,0.799,3.118,1.195,4.677
	c0,102.016,0,204.029,0,306.043c-0.254,0.825-0.594,1.636-0.75,2.479c-3.285,17.831-16.729,31.767-34.307,35.552
	c-1.324,0.286-2.633,0.647-3.949,0.975c-102.014,0-204.028,0-306.042,0c-0.698-0.238-1.379-0.572-2.098-0.701
	c-18.02-3.245-31.723-16.238-35.822-33.984C0.751,347.921,0.363,346.487,0,345.049z M44.411,162.655
	c-0.064,1.299-0.155,2.276-0.155,3.253c-0.007,52.748-0.021,105.496,0.007,158.245c0.005,9.559,6.354,15.643,16.25,15.644
	c87.622,0.015,175.244,0.014,262.865,0.002c10.432-0.002,16.424-6.083,16.424-16.604c0.008-52.123,0.004-104.246,0.004-156.37
	c0-1.332,0-2.664,0-4.108c-11.307,0-22.117,0-33.26,0c8.246,36.506,2.438,70.181-20.045,100.007
	c-22.524,29.888-52.963,45.781-90.463,47.222c-31.379,1.204-59.288-8.609-82.432-29.766c-34.803-31.814-45.827-71.538-36.27-117.523
	C66.292,162.655,55.579,162.655,44.411,162.655z M265.905,192.165c0.171-40.754-32.946-73.956-73.829-74.018
	c-40.682-0.062-73.561,32.647-73.927,73.545c-0.364,40.671,32.659,73.945,73.642,74.203
	C232.517,266.151,265.735,233.104,265.905,192.165z M303.083,44.226c-7.123,0-14.246-0.042-21.367,0.01
	c-9.449,0.07-15.715,5.901-15.846,15.271c-0.199,14.491-0.197,28.99,0.004,43.482c0.127,9.108,6.035,15.049,15.131,15.184
	c14.492,0.215,28.99,0.205,43.482,0.013c9.389-0.125,15.285-6.409,15.309-15.797c0.035-14.119,0.037-28.24-0.002-42.359
	c-0.025-9.483-6.217-15.701-15.719-15.791C317.08,44.173,310.082,44.226,303.083,44.226z"/>
</svg>
