<?xml version="1.0" encoding="utf-8"?>
<!-- Generator: Adobe Illustrator 16.0.0, SVG Export Plug-In . SVG Version: 6.00 Build 0)  -->
<!DOCTYPE svg PUBLIC "-//W3C//DTD SVG 1.1//EN" "http://www.w3.org/Graphics/SVG/1.1/DTD/svg11.dtd">
<svg version="1.1" id="Layer_1" xmlns="http://www.w3.org/2000/svg" xmlns:xlink="http://www.w3.org/1999/xlink" x="0px" y="0px"
	 width="279.033px" height="297.172px" viewBox="8.541 8.994 279.033 297.172" enable-background="new 8.541 8.994 279.033 297.172"
	 xml:space="preserve">
<g>
	<g>
		<path d="M8.541,150.722c2.835-47.431,19.066-84.725,54.023-112.467c67.97-53.939,181.718-33.61,216.266,63.521
			c6.259,17.597,9.238,35.81,8.677,54.458c-0.591,19.629-8.424,36.825-19.319,52.736c-16.886,24.66-38.672,44.529-62.838,61.65
			c-17.094,12.11-35.242,22.728-52.912,34.024c-2.516,1.606-4.771,2.191-7.776,0.513c-36.833-20.599-71.399-44.208-100.104-75.521
			c-16.17-17.639-29.523-37.054-34.258-61.085C8.924,161.584,8.876,154.358,8.541,150.722z M141.146,23.868
			c-33.183,0.666-66.514,15.514-91.152,47.458c-20.834,27.011-29.352,58.092-26.129,91.929
			c1.825,19.162,11.745,35.237,23.621,49.906c26.879,33.2,61.304,56.995,98.136,77.657c1.369,0.769,3.967,0.619,5.394-0.176
			c33.645-18.757,64.996-40.572,91.017-69.328c23.103-25.533,35.36-54.064,29.84-89.832
			C262.186,68.754,211.395,23.744,141.146,23.868z"/>
		<path fill="#FFFFFF" d="M141.146,23.868c70.249-0.124,121.04,44.886,130.724,107.615c5.522,35.766-6.737,64.297-29.841,89.832
			c-26.02,28.756-57.371,50.571-91.014,69.326c-1.429,0.795-4.025,0.945-5.396,0.178c-36.832-20.664-71.257-44.459-98.136-77.657
			c-11.876-14.669-21.796-30.744-23.621-49.906c-3.223-33.836,5.295-64.917,26.129-91.929
			C74.632,39.382,107.963,24.534,141.146,23.868z M87.185,176.443c0.794-1.267,1.179-1.699,1.109-1.793
			c-3.081-4.088-0.843-10.881-7.238-13.572c-1.242-0.521-2.126-5.202-1.208-6.9c2.331-4.31,5.404-8.389,8.873-11.871
			c4.485-4.503,12.052-3.31,14.526,2.566c3.095,7.349,14.933,10.172,21.677,7.12c1.601-0.725,3.239-1.368,5.025-2.118
			c2.115,4.565-0.97,6.945-2.536,9.9c-0.745,1.406-0.447,3.365-0.621,5.076c1.601-0.812,3.508-1.312,4.725-2.511
			c1.503-1.481,2.087-4.001,3.707-5.231c1.665-1.266,4.231-2.261,6.146-1.922c1.074,0.189,1.982,3.261,2.311,5.148
			c0.303,1.735-0.582,3.661-0.374,5.435c0.228,1.943,0.591,4.842,1.83,5.463c1.758,0.884,4.683,0.68,6.5-0.252
			c1.096-0.562,1.268-3.362,1.424-5.194c0.14-1.622-0.701-3.363-0.42-4.929c0.373-2.06,1.418-3.998,2.174-5.987
			c2.317,0.944,5.009,1.437,6.849,2.958c1.833,1.518,2.593,4.271,4.271,6.068c0.732,0.785,2.576,0.531,3.916,0.75
			c0.024-1.201,0.447-2.588-0.011-3.562c-0.837-1.782-2.483-3.196-3.247-4.995c-0.646-1.532-0.527-3.391-0.746-5.104
			c1.504,0.176,3.152,0.012,4.485,0.584c9.084,3.9,17.687,1.272,22.699-7.099c2.45-4.092,9.364-6.643,12.405-3.748
			c4.254,4.049,7.944,8.83,11.185,13.753c1.974,3,0.764,6-2.883,7.704c-1.14,0.533-2.104,1.891-2.673,3.094
			c-0.961,2.031-1.584,4.229-2.268,6.386c-0.391,1.233-0.619,2.52-0.921,3.782c0.451,0.311,0.901,0.621,1.354,0.934
			c1.674-1.395,3.244-2.945,5.052-4.139c1.79-1.185,3.817-2.006,5.741-2.987c0.86,2.174,2.008,4.29,2.479,6.545
			c0.279,1.334-0.271,2.992-0.852,4.33c-3.307,7.644-3.071,16.856-10.096,22.864c-0.341,0.291-0.521,0.881-0.592,1.357
			c-1.195,8.241-4.129,15.383-11.809,19.831c-0.752,0.437-0.637,2.37-1.092,4.328c2.988-2.41,4.922-3.554,6.312-5.166
			c5.47-6.344,10.97-12.682,16.042-19.339c2.465-3.234,4.055-7.148,5.958-10.798c2.351-4.504,4.839-8.956,6.862-13.607
			c2.164-4.978,3.889-10.147,5.727-15.263c0.438-1.216,0.946-2.618,0.723-3.805c-0.244-1.295-1.123-3.252-2.043-3.45
			c-1.285-0.278-3.078,0.519-4.258,1.391c-1.195,0.886-1.908,2.421-3.548,4.642c-1.53-3.849-2.804-6.675-3.791-9.602
			c-2.597-7.697-5.103-15.427-7.554-23.172c-0.319-1.007-0.192-2.186-0.128-3.277c0.618-10.588,1.309-21.173,1.837-31.766
			c0.049-0.989-0.743-2.768-1.371-2.877c-1.08-0.187-2.885,0.298-3.42,1.126c-1.78,2.753-3.131,5.784-4.135,7.721
			c-2.783,0-5.369-0.41-7.764,0.091c-4.134,0.865-6.545-0.547-7.365-4.529c-1.224-5.934-1.099-11.78,3.531-16.35
			c4.364-4.31,9.102-8.242,13.654-12.36c0.743-0.672,1.391-1.453,2.08-2.183c-0.197-0.373-0.395-0.747-0.59-1.12
			c-1.825,0.462-3.961,0.467-5.422,1.462c-7.676,5.233-15.295,10.567-22.674,16.206c-2.207,1.687-3.856,2.222-6.646,1.641
			c-9.801-2.042-19.669-3.711-29.42,0.632c-1.371,0.611-3.475,0.693-4.813,0.083c-9.91-4.508-19.891-2.434-29.942-0.867
			c-1.799,0.281-4.158-0.123-5.629-1.129c-7.803-5.34-15.333-11.078-23.138-16.414c-1.536-1.05-3.863-0.942-5.826-1.368
			c4.967,5.647,10.005,10.169,14.884,14.857c4.703,4.519,5.036,10.334,4.082,16.267c-0.773,4.806-3.045,5.956-7.831,5.077
			c-2.225-0.408-4.585-0.07-7.484-0.07c-0.885-1.744-2.196-4.752-3.93-7.495c-0.55-0.87-2.425-1.633-3.326-1.335
			c-0.82,0.271-1.655,2.072-1.604,3.158c0.482,10.421,1.153,20.834,1.763,31.25c0.065,1.115,0.396,2.331,0.079,3.333
			c-2.747,8.695-5.542,17.377-8.495,26.004c-0.746,2.18-2.108,4.148-3.506,6.824c-1.029-1.546-1.402-2.066-1.734-2.613
			c-1.422-2.338-3.276-5.363-6-2.932c-1.346,1.202-1.079,5.109-0.417,7.479c1.46,5.228,3.447,10.334,5.571,15.34
			c1.849,4.357,4.063,8.574,6.341,12.729c1.59,2.9,3.625,5.553,5.346,8.387c2.203,3.625,3.839,7.697,6.525,10.9
			c4.74,5.656,10.09,10.803,15.185,16.161c0.6-0.362,1.201-0.728,1.801-1.09c-0.883-1.417-1.611-2.964-2.679-4.226
			c-2.538-2.994-6.372-5.437-7.627-8.854c-2.457-6.691-4.192-13.552-9.093-19.079c-0.91-1.024-1.043-2.766-1.46-4.196
			c-1.016-3.494-2.043-6.986-2.954-10.508c-0.496-1.916-1.284-3.975-0.987-5.814c0.309-1.906,1.38-4.252,2.878-5.188
			c0.861-0.537,3.376,1.144,4.886,2.195C83.509,173.003,85.238,174.755,87.185,176.443z M160.715,207.318
			c0.042-4.344,1.335-8.096-3.594-9.549c-1.714-0.506-3.062-2.252-4.58-3.433c1.25-1.417,2.575-2.774,3.73-4.267
			c1.693-2.186,4.347-4.334,4.637-6.733c0.416-3.446-2.471-5.798-6.001-6.069c-4.294-0.334-8.638-0.354-12.938-0.108
			c-3.671,0.208-6.275,2.149-6.742,6.11c-0.458,3.888,2.103,5.474,5.09,7.047c1.434,0.756,3.332,2.688,3.182,3.853
			c-0.174,1.356-2.204,3.21-3.7,3.515c-3.609,0.733-4.626,2.746-4.43,6.015c0.065,1.086-0.097,2.186-0.214,4.391
			c-4.136-1.345-7.673-2.521-11.226-3.646c-5.884-1.861-7.058-7.062-7.925-13.608c-3.597,4.493-2.817,7.61-0.303,9.931
			c2.639,2.438,5.831,4.366,9.007,6.104c3.718,2.031,7.962,3.048,8.592,8.502c0.186,1.607,2.668,3.145,4.404,4.219
			c0.341,0.211,2.09-1.852,2.831-2.531c1.787,0.735,3.632,1.162,5.03,2.194c0.914,0.674,1.179,2.229,1.735,3.388
			c-1.106,0.137-2.307,0.604-3.296,0.325c-1.341-0.378-2.52-1.33-3.995-2.163c-1.445,4.286,1.127,6.801,3.674,7.471
			c3.066,0.808,6.828,0.402,9.863-0.674c1.665-0.592,2.455-3.646,3.64-5.592c-0.461-0.32-0.922-0.644-1.383-0.964
			c-1.117,0.642-2.172,1.594-3.367,1.828c-1.14,0.222-2.426-0.31-3.646-0.508c0.69-1.076,1.16-2.462,2.125-3.155
			c1.435-1.03,3.217-1.572,4.87-2.33c2.185,3.646,3.802,3.793,6.283,0.354c0.668-0.929,1.384-2.008,1.535-3.094
			c0.481-3.451,2.736-4.865,5.666-6.164c3.474-1.539,6.896-3.4,9.92-5.681c4.072-3.067,4.494-6.585,1.227-10.651
			C179.2,203.879,171.036,206.516,160.715,207.318z M120.288,240.859c9.546,9.604,19.092,19.209,27.869,28.041
			c8.86-8.918,18.418-18.536,27.977-28.156c-2.708-0.284-5.231,1.098-7.307,0.602c-6.07-1.453-10.162,0.937-14.063,5.176
			c-3.438,3.734-10.125,4.209-12.896,0.211C136.15,238.484,127.587,242.58,120.288,240.859z M224.43,69.234
			c-5.06,2.553-6.609,5.865-5.582,11.443C225.447,76.884,226.404,75.027,224.43,69.234z M72.163,69.119
			c-2.64,5.336-1.298,8.042,5.797,11.703C77.903,75.819,77.426,71.387,72.163,69.119z"/>
		<path d="M87.185,176.443c-1.947-1.688-3.676-3.44-5.661-4.825c-1.51-1.054-4.025-2.732-4.886-2.195
			c-1.498,0.935-2.569,3.281-2.878,5.188c-0.297,1.84,0.491,3.897,0.987,5.813c0.911,3.521,1.938,7.015,2.954,10.507
			c0.417,1.433,0.55,3.172,1.46,4.197c4.901,5.527,6.636,12.389,9.093,19.079c1.255,3.419,5.09,5.858,7.627,8.854
			c1.068,1.261,1.796,2.809,2.679,4.226c-0.6,0.362-1.201,0.728-1.801,1.09c-5.095-5.358-10.444-10.504-15.185-16.161
			c-2.686-3.205-4.322-7.277-6.525-10.902c-1.721-2.832-3.756-5.483-5.346-8.385c-2.278-4.154-4.492-8.373-6.341-12.729
			c-2.124-5.008-4.111-10.113-5.571-15.34c-0.662-2.368-0.929-6.275,0.417-7.479c2.724-2.433,4.579,0.594,6,2.932
			c0.333,0.545,0.706,1.067,1.734,2.613c1.397-2.675,2.76-4.644,3.506-6.824c2.953-8.627,5.748-17.309,8.495-26.004
			c0.317-1.003-0.014-2.219-0.079-3.333c-0.61-10.416-1.281-20.828-1.763-31.25c-0.05-1.086,0.784-2.887,1.604-3.158
			c0.901-0.298,2.776,0.465,3.326,1.335c1.733,2.742,3.045,5.751,3.93,7.495c2.898,0,5.259-0.338,7.484,0.07
			c4.786,0.878,7.058-0.271,7.831-5.077c0.955-5.933,0.622-11.749-4.082-16.267c-4.879-4.688-9.917-9.209-14.884-14.857
			c1.962,0.426,4.29,0.318,5.826,1.368c7.805,5.336,15.335,11.074,23.138,16.414c1.471,1.007,3.83,1.41,5.629,1.129
			c10.052-1.566,20.032-3.641,29.942,0.867c1.338,0.609,3.442,0.527,4.813-0.083c9.751-4.344,19.619-2.674,29.42-0.632
			c2.788,0.581,4.438,0.046,6.645-1.641c7.379-5.639,15-10.972,22.674-16.206c1.461-0.996,3.599-1,5.422-1.462
			c0.197,0.373,0.395,0.747,0.591,1.12c-0.691,0.73-1.336,1.511-2.08,2.183c-4.556,4.119-9.291,8.051-13.655,12.36
			c-4.628,4.57-4.753,10.417-3.531,16.35c0.819,3.982,3.232,5.395,7.365,4.529c2.396-0.501,4.979-0.091,7.764-0.091
			c1.004-1.938,2.354-4.968,4.135-7.721c0.535-0.828,2.341-1.313,3.421-1.126c0.627,0.109,1.42,1.888,1.37,2.877
			c-0.528,10.593-1.219,21.177-1.836,31.766c-0.064,1.091-0.19,2.271,0.127,3.277c2.453,7.745,4.957,15.475,7.555,23.172
			c0.986,2.925,2.26,5.752,3.791,9.6c1.641-2.219,2.354-3.754,3.548-4.64c1.179-0.873,2.972-1.669,4.257-1.391
			c0.92,0.198,1.799,2.155,2.045,3.452c0.224,1.185-0.287,2.587-0.724,3.803c-1.838,5.115-3.563,10.286-5.728,15.263
			c-2.021,4.651-4.512,9.104-6.861,13.607c-1.905,3.649-3.494,7.562-5.958,10.798c-5.072,6.658-10.572,12.995-16.042,19.339
			c-1.391,1.612-3.324,2.756-6.312,5.166c0.455-1.958,0.34-3.894,1.092-4.328c7.682-4.448,10.613-11.589,11.811-19.831
			c0.068-0.478,0.25-1.068,0.591-1.359c7.023-6.008,6.79-15.221,10.097-22.862c0.58-1.338,1.131-2.996,0.852-4.33
			c-0.473-2.256-1.618-4.371-2.48-6.545c-1.922,0.979-3.951,1.804-5.74,2.985c-1.807,1.195-3.377,2.744-5.053,4.141
			c-0.451-0.312-0.901-0.623-1.354-0.936c0.302-1.263,0.529-2.547,0.921-3.78c0.683-2.155,1.308-4.354,2.267-6.386
			c0.569-1.205,1.534-2.561,2.674-3.094c3.646-1.705,4.854-4.705,2.882-7.704c-3.238-4.923-6.929-9.704-11.183-13.753
			c-3.041-2.895-9.957-0.344-12.408,3.748c-5.015,8.371-13.613,10.999-22.697,7.099c-1.333-0.573-2.983-0.408-4.486-0.584
			c0.221,1.714,0.1,3.572,0.747,5.104c0.763,1.799,2.41,3.213,3.247,4.995c0.458,0.974,0.035,2.362,0.01,3.563
			c-1.339-0.22-3.183,0.033-3.916-0.752c-1.677-1.795-2.437-4.552-4.271-6.068c-1.839-1.522-4.529-2.015-6.849-2.958
			c-0.754,1.991-1.801,3.929-2.173,5.989c-0.282,1.562,0.558,3.305,0.419,4.927c-0.156,1.832-0.326,4.631-1.424,5.194
			c-1.814,0.933-4.741,1.136-6.499,0.252c-1.238-0.621-1.602-3.521-1.83-5.461c-0.208-1.774,0.677-3.699,0.374-5.437
			c-0.329-1.887-1.237-4.958-2.311-5.148c-1.915-0.339-4.481,0.658-6.146,1.922c-1.62,1.23-2.204,3.75-3.707,5.231
			c-1.217,1.2-3.124,1.699-4.725,2.509c0.174-1.709-0.124-3.668,0.621-5.076c1.566-2.955,4.651-5.333,2.536-9.898
			c-1.786,0.75-3.424,1.393-5.025,2.118c-6.744,3.052-18.582,0.229-21.677-7.12c-2.475-5.875-10.042-7.069-14.526-2.566
			c-3.468,3.482-6.542,7.561-8.873,11.871c-0.918,1.698-0.034,6.377,1.208,6.9c6.395,2.689,4.158,9.484,7.238,13.572
			C88.364,174.744,87.979,175.18,87.185,176.443z M111.995,122.386c4.2,0,7.515-0.186,10.785,0.113
			c0.994,0.091,1.864,1.521,2.791,2.339c-0.933,0.779-1.791,2.083-2.814,2.229c-2.266,0.324-4.858,0.701-6.883-0.076
			c-5.62-2.154-9.771,0.755-13.631,3.724c-1.444,1.11-1.434,4.112-2.086,6.251c1.889,0.122,4.079,0.929,5.619,0.254
			c10.961-4.803,20.435-3.549,27.99,6.266c2.752,3.575,6.149,3.217,8.458,0.517c2.051-2.4,4.124-6.331,3.589-9.08
			c-1.21-6.218-3.364-12.477-6.355-18.065c-3.582-6.692-8.783-8.344-16.11-6.621C117.287,111.662,115.097,116.841,111.995,122.386z
			 M183.686,122.29c-3.617-11.05-13.463-15.909-21.955-10.902c-6.729,3.968-13.277,20.542-11.076,28.038
			c1.859,6.329,8.188,8.332,12.238,3.495c7.909-9.443,17.201-10.319,27.791-5.517c1.938,0.878,4.521,2.348,5.344-0.693
			c0.475-1.746-0.424-4.835-1.807-5.927c-4.021-3.177-8.469-5.941-14.138-3.612c-1.478,0.607-3.377,0.915-4.88,0.542
			c-1.676-0.415-3.122-1.761-4.667-2.702c1.433-0.907,2.782-2.377,4.315-2.601C177.732,121.991,180.718,122.29,183.686,122.29z
			 M124.155,144.388c0.082-3.847-3.654-7.745-7.518-7.845c-3.871-0.1-7.609,3.618-7.667,7.627c-0.061,4.17,3.259,7.583,7.451,7.659
			C120.546,151.904,124.067,148.517,124.155,144.388z M187.27,144.35c0.029-4.082-3.638-7.841-7.58-7.77
			c-3.865,0.069-7.162,3.437-7.287,7.446c-0.139,4.449,2.923,7.804,7.181,7.868C183.759,151.958,187.238,148.542,187.27,144.35z"/>
		<path d="M160.715,207.318c10.321-0.803,18.485-3.438,19.703-15.678c3.27,4.066,2.846,7.584-1.227,10.651
			c-3.023,2.278-6.447,4.142-9.918,5.681c-2.932,1.299-5.187,2.713-5.668,6.166c-0.151,1.084-0.865,2.163-1.535,3.092
			c-2.48,3.438-4.098,3.295-6.283-0.354c-1.653,0.758-3.438,1.299-4.87,2.33c-0.965,0.694-1.435,2.08-2.125,3.153
			c1.222,0.201,2.507,0.73,3.646,0.51c1.196-0.233,2.252-1.188,3.369-1.828c0.461,0.32,0.922,0.645,1.383,0.964
			c-1.186,1.944-1.976,5-3.641,5.593c-3.035,1.075-6.797,1.479-9.863,0.672c-2.547-0.67-5.119-3.185-3.674-7.47
			c1.475,0.833,2.654,1.785,3.995,2.163c0.989,0.279,2.19-0.189,3.296-0.324c-0.556-1.16-0.821-2.714-1.735-3.389
			c-1.398-1.032-3.243-1.458-5.03-2.196c-0.741,0.685-2.49,2.744-2.831,2.533c-1.736-1.073-4.218-2.608-4.404-4.219
			c-0.63-5.454-4.875-6.472-8.592-8.502c-3.176-1.736-6.368-3.667-9.007-6.103c-2.515-2.32-3.294-5.438,0.303-9.932
			c0.867,6.546,2.041,11.747,7.925,13.609c3.553,1.125,7.089,2.3,11.226,3.646c0.117-2.205,0.279-3.305,0.214-4.392
			c-0.196-3.27,0.821-5.279,4.43-6.012c1.496-0.306,3.525-2.158,3.7-3.517c0.15-1.164-1.749-3.097-3.182-3.853
			c-2.988-1.573-5.548-3.16-5.09-7.049c0.466-3.959,3.071-5.899,6.742-6.108c4.3-0.245,8.645-0.226,12.938,0.106
			c3.529,0.273,6.417,2.623,6.001,6.071c-0.29,2.399-2.942,4.549-4.638,6.733c-1.155,1.49-2.48,2.85-3.729,4.267
			c1.517,1.181,2.865,2.927,4.58,3.431C162.05,199.223,160.757,202.975,160.715,207.318z"/>
		<path d="M120.288,240.859c7.3,1.72,15.862-2.375,21.579,5.873c2.77,3.996,9.459,3.521,12.896-0.213
			c3.9-4.24,7.992-6.627,14.062-5.176c2.074,0.497,4.6-0.885,7.307-0.602c-9.559,9.619-19.115,19.238-27.977,28.154
			C139.38,260.068,129.833,250.465,120.288,240.859z"/>
		<path d="M224.43,69.234c1.978,5.793,1.019,7.65-5.582,11.443C217.82,75.099,219.37,71.787,224.43,69.234z"/>
		<path d="M72.163,69.119c5.263,2.268,5.74,6.7,5.797,11.703C70.865,77.162,69.523,74.455,72.163,69.119z"/>
		<path fill="#FFFFFF" d="M111.995,122.386c3.102-5.544,5.292-10.724,11.351-12.149c7.327-1.723,12.528-0.071,16.11,6.621
			c2.991,5.589,5.146,11.847,6.355,18.065c0.535,2.749-1.538,6.68-3.589,9.08c-2.309,2.701-5.705,3.058-8.458-0.517
			c-7.556-9.815-17.029-11.069-27.99-6.266c-1.54,0.675-3.73-0.132-5.619-0.254c0.653-2.139,0.643-5.141,2.086-6.251
			c3.86-2.969,8.012-5.878,13.631-3.724c2.025,0.777,4.618,0.4,6.883,0.076c1.023-0.146,1.881-1.451,2.814-2.229
			c-0.927-0.817-1.797-2.248-2.791-2.339C119.509,122.2,116.195,122.386,111.995,122.386z"/>
		<path fill="#FFFFFF" d="M183.686,122.29c-2.967,0-5.953-0.299-8.834,0.121c-1.533,0.224-2.884,1.694-4.315,2.601
			c1.545,0.941,2.989,2.288,4.667,2.702c1.503,0.372,3.4,0.065,4.88-0.542c5.669-2.33,10.117,0.435,14.14,3.612
			c1.381,1.092,2.278,4.182,1.807,5.927c-0.824,3.041-3.408,1.571-5.344,0.693c-10.592-4.803-19.881-3.927-27.791,5.517
			c-4.053,4.836-10.381,2.833-12.24-3.495c-2.201-7.497,4.347-24.07,11.076-28.038C170.223,106.381,180.068,111.24,183.686,122.29z"
			/>
		<path fill="#FFFFFF" d="M124.155,144.388c-0.088,4.128-3.609,7.516-7.734,7.441c-4.192-0.076-7.512-3.489-7.451-7.659
			c0.059-4.009,3.796-7.728,7.667-7.627C120.501,136.644,124.237,140.542,124.155,144.388z M116.4,150.431
			c3.286,0.086,6.192-2.515,6.403-5.729c0.217-3.32-2.735-6.724-6.076-6.608c-3.571,0.124-6.003,1.921-6.309,5.738
			C110.133,147.398,112.871,150.339,116.4,150.431z"/>
		<path fill="#FFFFFF" d="M187.27,144.35c-0.031,4.192-3.511,7.608-7.688,7.544c-4.257-0.064-7.318-3.419-7.18-7.868
			c0.125-4.01,3.42-7.377,7.287-7.446C183.632,136.509,187.299,140.268,187.27,144.35z M185.896,144.682
			c-0.067-3.873-3.274-7.097-6.51-6.637c-3.479,0.495-5.744,2.566-5.818,6.3c-0.067,3.462,3.023,6.359,6.494,6.043
			C183.744,150.053,185.607,147.801,185.896,144.682z"/>
		<path d="M116.4,150.431c-3.53-0.092-6.267-3.033-5.982-6.6c0.305-3.816,2.738-5.614,6.309-5.738
			c3.341-0.115,6.293,3.288,6.076,6.608C122.593,147.916,119.686,150.517,116.4,150.431z M121.667,144.204
			c-2.367-1.585-3.778-3.274-5.035-3.166c-1.304,0.112-2.458,1.964-3.679,3.055c1.258,1.249,2.36,3.18,3.826,3.515
			C117.814,147.844,119.343,145.915,121.667,144.204z"/>
		<path d="M185.896,144.682c-0.289,3.119-2.153,5.371-5.834,5.707c-3.471,0.316-6.562-2.581-6.494-6.043
			c0.074-3.734,2.339-5.805,5.816-6.3C182.622,137.585,185.829,140.81,185.896,144.682z M179.637,149.24
			c1.674-2.215,3.611-3.698,3.408-4.776c-0.268-1.411-2.225-2.502-3.455-3.731c-1.113,1.2-3,2.329-3.117,3.62
			C176.359,145.588,178.084,146.991,179.637,149.24z"/>
		<path fill="#FFFFFF" d="M121.667,144.204c-2.324,1.71-3.854,3.64-4.888,3.404c-1.466-0.335-2.568-2.266-3.826-3.515
			c1.22-1.091,2.375-2.943,3.679-3.055C117.889,140.93,119.301,142.619,121.667,144.204z"/>
		<path fill="#FFFFFF" d="M179.637,149.24c-1.552-2.249-3.277-3.652-3.164-4.887c0.117-1.291,2.004-2.42,3.117-3.62
			c1.23,1.229,3.188,2.32,3.455,3.731C183.248,145.542,181.311,147.025,179.637,149.24z"/>
	</g>
</g>
</svg>
