<?xml version="1.0" encoding="utf-8"?>
<!-- Generator: Adobe Illustrator 16.0.0, SVG Export Plug-In . SVG Version: 6.00 Build 0)  -->
<!DOCTYPE svg PUBLIC "-//W3C//DTD SVG 1.1//EN" "http://www.w3.org/Graphics/SVG/1.1/DTD/svg11.dtd">
<svg version="1.1" id="Layer_1" xmlns="http://www.w3.org/2000/svg" xmlns:xlink="http://www.w3.org/1999/xlink" x="0px" y="0px"
	 width="429.099px" height="121.096px" viewBox="0 0 429.099 121.096" style="enable-background:new 0 0 429.099 121.096;"
	 xml:space="preserve">
<style type="text/css">
<![CDATA[
	.st0{fill-rule:evenodd;clip-rule:evenodd;fill:#736D6C;}
	.st1{fill-rule:evenodd;clip-rule:evenodd;fill:#746E6E;}
	.st2{fill-rule:evenodd;clip-rule:evenodd;fill:#756E6E;}
	.st3{fill-rule:evenodd;clip-rule:evenodd;fill:#E3E1E0;}
	.st4{fill-rule:evenodd;clip-rule:evenodd;fill:#EDECEC;}
	.st5{fill-rule:evenodd;clip-rule:evenodd;fill:#554F4F;}
	.st6{fill-rule:evenodd;clip-rule:evenodd;fill:#585252;}
	.st7{fill:#FFFFFF;}
	.st8{fill-rule:evenodd;clip-rule:evenodd;fill:#242020;}
	.st9{fill-rule:evenodd;clip-rule:evenodd;fill:#FBFBFB;}
	.st10{fill-rule:evenodd;clip-rule:evenodd;fill:#FCFCFB;}
	.st11{fill-rule:evenodd;clip-rule:evenodd;fill:#FCFCFC;}
	.st12{fill-rule:evenodd;clip-rule:evenodd;fill:#FDFDFD;}
	.st13{fill-rule:evenodd;clip-rule:evenodd;fill:#FEFEFE;}
	.st14{fill-rule:evenodd;clip-rule:evenodd;fill:#FFFFFF;}
]]>
</style>
<g>
	<g>
		<g>
			<path class="st7" d="M86,121c-27.246,0-54.492-0.049-81.738,0.076c-2.719,0.012-3.364-0.479-3.345-3.294
				C1.065,95.189,1,72.594,1,50c0.626-0.521,1.298-0.955,2.108-1.131c7.153-0.449,14.319-0.181,21.479-0.164
				c3.091,0.007,4.731-0.995,5.794-4.122c3.332-9.791,8.139-18.969,12.58-28.283c2.492-5.227,10.913-7.677,15.965-5.016
				c2.923,1.539,1.97,4.04,1.058,6.104c-4.039,9.139-7.991,18.327-12.859,27.072c-2.216,3.981-2.223,4.101,2.06,4.178
				c5.164,0.093,10.331-0.013,15.495,0.032c2.888,0.024,4.459-1.065,5.388-3.995c3.178-10.032,8.282-19.259,12.668-28.778
				c2.293-4.977,10.77-7.151,15.639-4.546c2.559,1.369,2.231,3.537,1.362,5.624c-3.842,9.224-7.938,18.334-12.579,27.191
				c-0.648,1.237-2.495,2.321-1.396,3.882c0.79,1.122,2.495,0.597,3.801,0.603c5.165,0.021,10.331,0.054,15.496-0.015
				c2.119-0.028,3.958-0.405,4.544-2.937c1.977-8.532,6.528-15.998,10.025-23.898c1.012-2.287,2.063-4.536,2.683-6.981
				c1.516-5.981-1.959-9.365-6.276-12.352C115.673,1.985,115.664,1.496,116,1c103,0,206,0.022,309-0.096
				c3.424-0.004,4.113,0.669,4.099,4.096c-0.157,37.333-0.157,74.667,0,112c0.015,3.426-0.674,4.102-4.099,4.096
				C344,120.973,263,121,182,121c-1.466-1.65-1.371-3.619-1.159-5.612c0.953-4.811,3.622-8.901,5.612-13.281
				c0.936-2.059,2.187-2.212,4.389-1.663c9.486,2.366,19.141,1.502,28.699,0.568c4.367-0.426,7.415-3.648,9.549-7.393
				c4.371-7.67,7.862-15.787,11.277-23.9c3.032-7.205-0.492-12.316-8.334-12.313c-7.461,0.003-14.954,0.285-22.391,0.386
				c-7.217,0.098-14.556-0.189-21.833-0.519c-2.41-0.109-3.986,0.355-4.876,3.025c-4.537,13.604-11.478,26.173-17.329,39.209
				c-3.059,6.813-5.848,13.784-9.603,20.281c-0.319,0.417-0.653,0.819-1.001,1.212c-14,0-28,0-42,0
				c-1.237-1.363-1.357-3.017-1.247-4.73c0.182-2.025,1.046-3.845,1.792-5.695c1.246-3.09,2.305-6.359,4.577-8.828
				c2.778-3.019,5.939,0.147,8.966-0.003c5.815-0.288,11.667-0.278,17.489-0.032c8.209,0.348,13.723-3.567,17.135-10.596
				c3.272-6.738,6.566-13.482,9.352-20.449c3.354-8.388,0.065-13.335-9.115-13.28c-7.144,0.042-14.323,0.353-21.433,0.412
				c-7.073,0.058-14.258-0.135-21.378-0.536c-2.969-0.167-4.559,0.587-5.199,3.793c-1.287,6.443-4.937,11.994-7.625,17.883
				c-5.947,13.029-11.805,26.105-18.086,38.981C87.632,119.051,86.858,120.057,86,121z"/>
			<path class="st14" d="M3.297,49.859C2.531,49.906,1.766,49.953,1,50C1,34.772,1.069,19.544,0.933,4.318
				C0.91,1.747,1.172,0.771,4.142,0.906C10.749,1.207,17.379,1,24,1c0.343,0.381,0.625,0.804,0.85,1.265
				c0.807,2.935-0.139,5.641-1.314,8.216c-4.77,10.451-9.321,21.005-14.54,31.246C7.482,44.696,5.843,47.602,3.297,49.859z"/>
			<path class="st6" d="M112.89,115.98c0.037,1.674,0.073,3.347,0.11,5.02c-9,0-18,0-27,0c-0.049-1.123-0.076-2.238,1.014-2.971
				c6.385,0.939,12.818,0.27,19.214,0.604C109.031,118.779,110.558,116.55,112.89,115.98z"/>
			<path class="st5" d="M155,121c0.055-0.348,0.11-0.696,0.165-1.045c2.107-1.836,4.691-1.355,7.139-1.415
				c3.152-0.077,6.335-0.279,9.455,0.044c4.063,0.422,7.284-0.979,10.172-3.596c0.022,2.004,0.045,4.008,0.068,6.012
				C173,121,164,121,155,121z"/>
			<path class="st2" d="M54,1c10,0,20,0,30,0c0.296,0.675,0.13,1.206-0.495,1.595c-9.668,1.521-19.34,1.521-29.014,0.008
				C53.866,2.211,53.704,1.675,54,1z"/>
			<path class="st0" d="M24.162,2.08C24.107,1.72,24.054,1.36,24,1c8.667,0,17.333,0,26,0c0.626,0.778,0.709,1.622,0.307,2.524
				C41.59,3.072,32.75,4.855,24.162,2.08z"/>
			<path class="st1" d="M116,1c-0.143,0.328-0.122,0.644,0.065,0.949c-1.825,1.879-4.231,1.645-6.469,1.55
				c-5.36-0.228-10.803,0.93-16.077-0.877C92.879,2.231,92.707,1.69,93,1C100.667,1,108.333,1,116,1z"/>
			<path class="st4" d="M93,1c-0.131,0.264-0.187,0.543-0.168,0.837c-4.62,4.443-5.241,4.45-8.756,0.099
				C83.937,1.633,83.912,1.321,84,1C87,1,90,1,93,1z"/>
			<path class="st3" d="M50.014,2.901C50.009,2.268,50.005,1.634,50,1c1.333,0,2.667,0,4,0c-0.072,0.281-0.12,0.567-0.144,0.856
				C52.834,3.154,51.61,3.711,50.014,2.901z"/>
			<path class="st8" d="M50.014,2.901c1.281-0.348,2.562-0.697,3.842-1.045c10.073,0.026,20.146,0.053,30.22,0.08
				c2.966,4.109,5.847,0.766,8.756-0.099c7.744,0.037,15.489,0.075,23.233,0.112c7.103,2.445,9.84,7.762,6.996,14.823
				c-2.976,7.385-6.546,14.529-9.78,21.812c-0.938,2.113-2.346,4.375-2.256,6.515c0.193,4.592-2.363,4.519-5.613,4.467
				c-7.619-0.124-15.241-0.04-23.6-0.04c7.519-10.078,11.272-21.411,16.422-32.051c2.415-4.991,1.84-5.319-3.654-5.868
				c-6.197-0.619-9.833,1.442-12.11,7.491c-3.092,8.216-8.229,15.804-10.336,24.201c-1.577,6.285-4.394,6.53-9.315,6.302
				c-6.613-0.306-13.252-0.076-20.628-0.076c7.506-10.14,11.249-21.479,16.446-32.099c2.462-5.032,1.944-5.33-3.512-5.815
				c-6.349-0.564-10.191,1.506-12.394,7.83c-3.368,9.667-9.759,18.152-11.502,28.498c-0.415,2.463-2.244,1.514-3.501,1.543
				c-8.142,0.193-16.287,0.264-24.431,0.375c-0.783-2.876,2.104-3.821,3.102-5.767C12.465,32.257,17.94,20.151,23.145,7.923
				c0.754-1.771,0.698-3.887,1.017-5.844c7.04-0.026,14.082,0.029,21.119-0.138C47.007,1.901,48.456,2.499,50.014,2.901z"/>
			<path class="st8" d="M181.932,114.988c-0.612,4.887-3.809,5.301-7.934,5.088c-6.263-0.324-12.554-0.107-18.833-0.121
				c6.76-14.934,13.625-29.82,20.227-44.823c2.58-5.864,6.548-11.246,6.747-18.029c0.062-2.118,1.785-1.553,2.992-1.563
				c4.989-0.045,10.032-0.479,14.958,0.081c9.437,1.072,18.809-0.65,28.207-0.097c2.154,0.127,4.341,0.083,6.457,0.445
				c6.166,1.054,9.619,6.254,7.504,12.104c-3.386,9.363-7.664,18.383-12.455,27.105c-2.725,4.959-7.339,7.697-13.09,7.859
				c-7.31,0.207-14.628,0.122-21.941,0.225c-2.517,0.036-4.361-1.281-6.309-2.965C186.234,105.307,184.083,110.148,181.932,114.988z
				"/>
			<path class="st8" d="M112.89,115.98c-0.729,3.49-2.919,4.305-6.307,4.104c-5.246-0.31-10.523-0.062-15.787-0.095
				c-1.559-0.009-3.467,0.508-3.782-1.961c7.892-17.216,15.795-34.426,23.66-51.653c0.894-1.959,2.293-4.05,2.205-6.024
				c-0.22-4.931,2.498-5.042,6.151-4.883c4.988,0.216,10.09-0.57,14.97,0.189c9.085,1.413,18.023-0.74,27.064-0.238
				c11.882,0.659,15.658,6.181,10.793,17.009c-2.928,6.519-6.016,12.964-8.983,19.466c-3.373,7.39-8.979,11.355-17.203,11.378
				c-6.33,0.017-12.661,0.035-18.99,0.011c-0.992-0.004-2.312,0.137-2.921-0.412c-4.616-4.146-5.354,0.171-6.639,2.999
				C115.61,109.195,114.292,112.607,112.89,115.98z"/>
			<path class="st8" d="M293.832,15.192c7.575,0,14.39-0.046,21.203,0.011c10.51,0.088,13.347,5.148,9.879,14.854
				c-5.361,15.004-14.963,21.601-31.141,20.105c-11.566-1.069-23.312-0.3-34.975-0.148c-3.301,0.043-4.787-0.506-3.091-4.045
				c0.64-1.333,1.04-2.827,1.284-4.292c0.43-2.583,1.672-2.962,4.173-2.542c9.75,1.641,19.61,0.54,29.421,0.795
				c1.799,0.047,3.665-0.553,3.654-2.553c-0.012-2.415-2.25-1.342-3.486-1.374c-5.663-0.147-11.339,0.082-16.993-0.183
				c-7.613-0.356-10.946-5.622-8.329-12.737c0.114-0.311,0.307-0.592,0.436-0.897c7.781-18.479,10.195-20.087,30.17-20.087
				c11.664,0,23.33,0.081,34.994-0.053c3.156-0.037,4.454,0.259,3.35,4.029c-2.027,6.913-1.746,6.632-8.623,6.317
				c-9.147-0.419-18.324-0.211-27.487-0.274C296.535,12.104,295.047,12.497,293.832,15.192z"/>
			<path class="st8" d="M266.451,2.098c0.094,0.664,0.242,1.014,0.17,1.311c-0.744,3.067-0.704,6.791-2.508,9.01
				c-2.062,2.535-5.555-0.374-8.506-0.303c-8.485,0.205-16.979-0.001-25.469,0.021c-1.596,0.004-3.979-0.129-3.85,2.007
				c0.119,1.979,2.43,0.968,3.715,0.995c6.156,0.129,12.324-0.1,18.477,0.123c8.317,0.301,11.604,5.515,8.564,13.192
				c-0.122,0.309-0.256,0.614-0.355,0.931c-4.846,15.544-14.873,22.333-31.557,20.801c-12.697-1.166-25.586-0.231-38.912-0.231
				c1.018-3.407,2.003-6.369,2.767-9.388c0.459-1.814,1.466-1.813,2.964-1.542c9.745,1.769,19.59,0.593,29.386,0.918
				c0.824,0.027,1.697,0.015,2.471-0.226c1.149-0.356,2.195-1.097,2.197-2.419c0.004-1.911-1.602-1.307-2.604-1.32
				c-5.659-0.074-11.324,0.068-16.979-0.1c-9.143-0.271-11.848-5.44-8.853-14.145c5.025-14.603,14.11-21.28,30.044-19.867
				C240.48,3.007,253.529,2.098,266.451,2.098z"/>
			<path class="st8" d="M131.114,13.796c2.359-3.543,4.62-6.753,6.671-10.092c1.114-1.813,2.71-1.609,4.36-1.608
				c13.663,0.002,27.327-0.063,40.989,0.025c9.271,0.06,13.8,6.364,10.448,15.058c-2.745,7.121-6.279,13.935-9.407,20.911
				c-1.422,3.171-3.208,6.264-3.152,9.889c0.024,1.527-0.566,2.121-2.027,2.039c-0.665-0.038-1.352,0.101-1.997-0.017
				c-6.91-1.259-14.41,2.766-20.889-2.326c-6.843,3.872-14.325,1.883-21.537,2.313c-2.83,0.168-5.697,0.025-8.334-1.192
				c-3.811-1.76-6.754-4.914-5.844-8.969c2.644-11.78,7.969-23.312,22.279-22.205c7.122,0.551,14.322,0.096,21.487,0.097
				c1.498,0,3.033,0.131,4.312-0.875c0.959-0.753,1.622-1.762,1.485-2.999c-0.17-1.547-1.536-1.656-2.655-1.628
				C155.388,12.519,143.386,10.828,131.114,13.796z"/>
			<path class="st8" d="M40.402,67.127c0-0.496-0.066-0.703,0.009-0.822c6.891-10.784,6.892-10.783,19.919-10.783
				c10.151,0,20.302-0.034,30.454,0.01c11.005,0.048,15.319,6.511,11.007,16.748c-2.834,6.729-6.044,13.299-9.08,19.943
				c-0.62,1.356-1.721,2.726-1.725,4.092c-0.018,7.281-4.472,7.691-10.044,7.058c-2.958-0.337-5.985-0.104-8.979-0.05
				c-4.631,0.088-8.955-1.879-13.973-0.393c-4.597,1.363-9.898,0.377-14.89,0.373c-2.658-0.002-5.328-0.004-7.845-1.096
				c-4.09-1.773-7.013-5.014-5.981-9.299c3.319-13.777,8.973-23.089,22.97-21.954c6.944,0.563,13.971,0.104,20.96,0.093
				c1.647-0.002,3.454,0.277,4.574-1.317c0.539-0.769,1.034-1.794,1.002-2.685c-0.046-1.293-1.374-1.139-2.308-1.3
				C71.857,64.947,45.177,65.925,40.402,67.127z"/>
			<path class="st8" d="M316.002,67.118c1.145-1.351,2.014-1.983,2.344-2.827c3.222-8.227,9.557-9.401,17.541-8.925
				c10.613,0.632,21.294,0.096,31.944,0.174c10.414,0.076,14.76,6.517,10.756,16.231c-2.782,6.747-6.052,13.294-9.092,19.935
				c-0.691,1.51-1.879,3.03-1.907,4.562c-0.132,7.127-4.36,7.832-10.039,7.111c-2.948-0.375-6.098,0.459-8.958-0.162
				c-9.461-2.056-18.809,0.624-28.243,0.228c-13.602-0.571-17.295-6.118-12.092-18.495c4.203-9.998,10.818-15.009,21.966-13.996
				c6.107,0.555,12.307,0.101,18.464,0.098c0.999,0,2.001,0.029,2.995-0.041c2.132-0.148,3.55-1.346,3.536-3.441
				c-0.019-2.666-2.378-1.891-3.773-1.852C339.84,66.037,328.174,64.555,316.002,67.118z"/>
			<path class="st8" d="M299.357,92.732c-1.875,3.059-3.686,5.803-5.27,8.672c-0.992,1.8-2.451,1.932-4.198,1.926
				c-13.498-0.037-27,0.158-40.493-0.092c-10.971-0.203-15.028-6.788-10.607-16.693c2.98-6.679,6.158-13.27,9.167-19.937
				c3.107-6.887,8.392-10.732,15.905-10.98c12.488-0.412,24.995-0.678,37.471,0.197c7.856,0.551,11.647,6.117,9.206,13.565
				c-1.494,4.557-3.844,8.829-5.718,13.268c-0.961,2.275-2.854,1.883-4.648,1.884c-10.832,0.005-21.664-0.012-32.496,0.011
				c-3.156,0.006-6.541,3.821-6.063,6.775c0.409,2.539,2.508,1.799,3.976,1.809C276.673,93.203,287.764,93.629,299.357,92.732z"/>
			<path class="st8" d="M371.005,103.312c9.072-13.459,14.189-28.094,20.783-41.982c3.243-6.83,7.684-13.307,8.285-21.205
				c0.136-1.787,1.454-1.512,2.552-1.515c7.812-0.023,15.626-0.013,23.447-0.013c0.784,2.062-0.579,3.349-1.205,4.718
				c-7.46,16.318-15.008,32.595-22.511,48.893c-0.832,1.81-2.229,3.71-2.155,5.52c0.224,5.559-2.896,5.811-7.159,5.655
				C385.895,103.123,378.731,103.312,371.005,103.312z"/>
			<path class="st13" d="M210.567,65.689c2.122,0,3.284-0.039,4.442,0.008c2.536,0.104,3.704,0.881,2.339,3.703
				c-3.241,6.698-6.199,13.533-9.425,20.238c-1.546,3.216-10.743,5.201-13.742,3.17c-1.515-1.025-0.954-2.278-0.4-3.506
				c3.128-6.934,6.212-13.889,9.437-20.777C204.943,64.842,208.49,65.85,210.567,65.689z"/>
			<path class="st13" d="M141.905,65.682c1.756,0,2.922-0.006,4.088,0.001c3.093,0.019,3.727,1.284,2.377,4.079
				c-3.181,6.585-6.114,13.289-9.297,19.873c-1.54,3.185-11.04,5.218-13.778,3.141c-1.454-1.102-0.809-2.486-0.301-3.619
				c3.124-6.973,6.307-13.92,9.567-20.831C136.231,64.784,139.633,65.913,141.905,65.682z"/>
			<path class="st9" d="M164.058,27.693c-1.658,3.594-2.972,6.759-4.56,9.779c-1.25,2.376-12.439,3.668-14.105,1.742
				c-0.29-0.334-0.432-0.875-0.47-1.334c-0.346-4.142,5.061-10.115,9.232-10.177C157.269,27.656,160.385,27.693,164.058,27.693z"/>
			<path class="st12" d="M72.924,80.961c-1.695,3.658-3.024,6.82-4.608,9.847c-1.179,2.251-12.644,3.624-14.156,1.798
				c-0.277-0.334-0.313-0.924-0.339-1.402c-0.252-4.645,5.019-10.209,9.698-10.238C66.444,80.946,69.371,80.961,72.924,80.961z"/>
			<path class="st11" d="M349.494,80.962c-0.906,1.997-1.496,3.312-2.1,4.622c-3.517,7.643-6.865,9.324-14.971,7.582
				c-0.998-0.214-1.965-0.334-2.209-1.563c-0.619-3.132,5.236-10.544,8.484-10.623C342.002,80.898,345.309,80.962,349.494,80.962z"
				/>
			<path class="st10" d="M269.519,74.305c2.337-7.979,8.72-11.236,15.964-8.518c1.195,0.447,1.812,1.254,1.209,2.168
				c-1.496,2.271-0.828,6.362-5.143,6.352C277.57,74.296,273.591,74.305,269.519,74.305z"/>
		</g>
	</g>
</g>
</svg>
