<?xml version="1.0" encoding="utf-8"?>
<!-- Generator: Adobe Illustrator 16.0.0, SVG Export Plug-In . SVG Version: 6.00 Build 0)  -->
<!DOCTYPE svg PUBLIC "-//W3C//DTD SVG 1.1//EN" "http://www.w3.org/Graphics/SVG/1.1/DTD/svg11.dtd">
<svg version="1.1" id="Layer_1" xmlns="http://www.w3.org/2000/svg" xmlns:xlink="http://www.w3.org/1999/xlink" x="0px" y="0px"
	 width="542.191px" height="131.141px" viewBox="0 0 542.191 131.141" enable-background="new 0 0 542.191 131.141"
	 xml:space="preserve">
<g>
	<path fill="#FFFFFF" d="M262.761,68.616c1.667,0.002,3.337,0.084,4.998-0.014c4.536-0.27,8.944-0.576,10.161,5.5
		c0.316,1.573,1.883,2.67,3.281,3.639c6.191,4.281,22.235,3.627,28.098-1.213c2.635-2.178,3.859-4.98,3.148-8.398
		c-0.697-3.348-3.053-5.179-6.25-5.596c-8.408-1.095-16.848-1.949-25.268-2.963c-2.635-0.317-5.278-0.695-7.86-1.294
		c-10.855-2.52-19.142-8.09-20.921-19.887c-1.87-12.396,1.122-23.361,12.323-30.435c12.062-7.616,25.491-9.104,39.384-7.213
		c5.098,0.694,10.156,1.656,14.941,3.735c10.791,4.688,16.135,13.298,17.998,24.531c0.428,2.573-0.209,3.532-3.031,3.444
		c-6.658-0.207-13.328-0.065-19.994-0.069c-1.314,0-2.594,0.183-3.158-1.603c-2.26-7.151-8.191-8.438-14.588-9.051
		c-3.549-0.34-7.035-0.021-10.375,1.004c-4.307,1.322-7.337,4.018-7.143,8.983c0.199,5.114,4.272,6.022,8.045,6.559
		c8.729,1.239,17.516,2.062,26.268,3.14c2.299,0.283,4.604,0.729,6.83,1.36c10.57,2.999,17.266,9.499,18.688,20.793
		c1.527,12.124-1.342,22.561-11.811,29.778c-11.381,7.846-24.438,8.97-37.748,8.553c-7.348-0.23-14.57-1.259-21.339-4.396
		c-11.058-5.124-15.95-14.411-17.663-25.932c-0.394-2.648,0.708-3.102,2.989-2.999C256.091,68.725,259.428,68.614,262.761,68.616z"
		/>
	<path fill="#FFFFFF" d="M24.478,12.044C38.495,0.165,53.776-2.648,70.544,2.581c12.911,4.027,21.123,14.65,21.283,28.235
		c0.256,21.827,0.035,43.659,0.158,65.488c0.015,2.729-0.89,3.321-3.401,3.254c-5.995-0.16-12.007-0.261-17.992,0.032
		c-3.337,0.162-3.745-1.184-3.728-4.04c0.114-18.495,0.075-36.993,0.054-55.489c-0.012-11.017-4.971-16.198-16.087-16.329
		c-8.805-0.104-16.196,3.298-21.803,10.208c-2.136,2.632-3.248,5.541-3.216,9.122c0.153,17.329-0.069,34.663,0.176,51.988
		c0.055,3.892-1.105,4.733-4.722,4.54c-5.815-0.311-11.663-0.179-17.492-0.04C1.103,99.613-0.011,98.974,0,95.962
		C0.113,65.968,0.106,35.972,0.012,5.978C0.004,3.258,0.966,2.507,3.465,2.556C8.795,2.66,14.152,2.89,19.454,2.494
		c4.294-0.321,5.65,1.264,5.049,5.267C24.334,8.89,24.478,10.067,24.478,12.044z"/>
	<path fill="#FFFFFF" d="M542.191,2.71c-17.699,41.746-35.799,82.407-52.371,123.712c-1.355,3.378-2.938,4.909-6.791,4.698
		c-6.646-0.365-13.326-0.216-19.986-0.058c-3.049,0.071-3.799-0.438-2.381-3.542c4.68-10.233,8.922-20.668,13.662-30.871
		c1.348-2.9,1.057-5.08-0.139-7.837c-11.768-27.183-23.359-54.439-35.127-81.623c-1.514-3.501-1.541-4.872,2.955-4.577
		c5.973,0.393,12.012,0.413,17.979-0.02c3.965-0.286,5.439,1.463,6.715,4.758c7.49,19.394,15.145,38.724,23.057,58.866
		c4.18-10.734,8.072-20.836,12.043-30.905c3.887-9.855,7.9-19.66,11.738-29.534c0.727-1.871,1.346-3.15,3.723-3.114
		C525.388,2.785,533.511,2.71,542.191,2.71z"/>
	<path fill="#FFFFFF" d="M213.736,50.48c0-14.496,0.121-28.993-0.087-43.486c-0.051-3.569,1.008-4.532,4.463-4.365
		c5.818,0.282,11.661,0.15,17.49,0.045c2.349-0.042,3.15,0.734,3.145,3.165c-0.072,30.158-0.082,60.315,0.014,90.474
		c0.009,2.813-1.103,3.291-3.53,3.237c-5.996-0.129-12.001-0.193-17.991,0.023c-2.869,0.104-3.589-0.814-3.565-3.607
		C213.805,80.805,213.736,65.642,213.736,50.48z"/>
	<path fill="#28C0F1" d="M197.112,76.637c-8.91,16.959-30.82,28.227-48.92,25.158c2.816-2.354,3.178-5.479,3.226-8.936
		c0.107-7.793-0.688-15.607,0.478-23.374c0.265-0.594,0.562-1.349,1.192-1.458c6.218-1.07,10.834-4.863,15.319-8.896
		c9.89,4.143,18.74,10.122,27.76,15.802C196.728,75.288,196.884,76.019,197.112,76.637z"/>
	<path fill="#E8529D" d="M109.048,76.604c-9.847-17.114-9.591-34.206,0.113-51.276c5.255,0.875,9.27,4.296,13.669,6.847
		c5.283,3.063,11.141,5.255,15.551,9.729c-1.389,6.036-1.456,12.071,0.026,18.104c-5.185,5.272-12.1,7.867-18.263,11.609
		C116.701,73.709,113.534,76.718,109.048,76.604z"/>
	<path fill="#EFE93F" d="M152.963,0.125c18.768-0.387,37.013,11.323,43.967,25.337c-0.228,1.24-1.03,2.097-2.053,2.663
		c-8.794,4.873-17.009,10.784-26.343,14.696c-4.381-3.745-8.937-7.158-14.758-8.405c-0.99-0.212-1.593-1.118-1.942-2.108
		c-1.074-9.547-0.427-19.109-0.375-28.663C151.464,2.326,151.797,1.012,152.963,0.125z"/>
	<path fill="#58B949" d="M168.532,42.396c9.466-5.646,18.931-11.29,28.397-16.936c9.936,17.023,9.861,34.082,0.182,51.174
		c-9.486-5.643-18.973-11.284-28.46-16.929c-0.087-0.14-0.271-0.297-0.249-0.417C169.448,53.666,168.959,48.031,168.532,42.396z"/>
	<path fill="#3F59A8" d="M109.048,76.604c9.569-5.443,19.138-10.889,28.707-16.332c4.725,3.321,9.739,6.134,15,8.511
		c0.066,9.803-0.08,19.611,0.295,29.402c0.165,4.311-2.708,3.161-4.863,3.607C131.11,99.668,117.777,91.713,109.048,76.604z"/>
	<path fill="#EE4428" d="M152.963,0.125c0.014,11.082,0.028,22.163,0.042,33.245c-5.622,1.832-10.012,5.847-15.143,8.551
		c-9.567-5.53-19.134-11.061-28.702-16.591C119.188,8.977,134.003,0.95,152.963,0.125z"/>
	<path fill="#FFFFFF" d="M377.361,60.519c9.65,0.345,19.324,0.102,28.988,0.102c9.998-0.001,19.998-0.087,29.994,0.054
		c2.695,0.039,3.871-0.516,3.674-3.501c-0.283-4.315,0.146-8.683-0.221-12.986c-1.629-19.031-8.838-39.197-37.281-43.439
		c-21.205-3.162-47.029,4.323-54.096,31.839c-3.168,12.335-3.316,24.711-0.008,37c4.631,17.2,15.848,27.534,33.312,31.097
		c10.109,2.062,20.23,1.766,30.244-0.334c15.227-3.193,24.559-13.396,27.318-28.744c0.516-2.869-0.359-3.043-2.592-3.021
		c-6.664,0.071-13.33,0.04-19.994,0.019c-1.525-0.006-3.035-0.159-3.627,1.761c-2.25,7.275-8.238,9.042-14.762,9.808
		c-12.645,1.481-21.822-3.936-24.879-14.179C372.253,62.034,372.527,60.347,377.361,60.519z M372.951,38.893
		c0.676-8.703,8.182-15.79,17.752-16.491c12.752-0.936,19.748,3.413,21.975,13.584c0.768,3.493,0.512,5.614-4.117,5.232
		c-5.279-0.435-10.621-0.101-15.936-0.104c-5.646-0.003-11.293,0.002-16.939-0.008C374.208,41.104,372.751,41.421,372.951,38.893z"
		/>
</g>
</svg>
