<?xml version="1.0" encoding="utf-8"?>
<!-- Generator: Adobe Illustrator 16.0.0, SVG Export Plug-In . SVG Version: 6.00 Build 0)  -->
<!DOCTYPE svg PUBLIC "-//W3C//DTD SVG 1.1//EN" "http://www.w3.org/Graphics/SVG/1.1/DTD/svg11.dtd">
<svg version="1.1" id="Layer_1" xmlns="http://www.w3.org/2000/svg" xmlns:xlink="http://www.w3.org/1999/xlink" x="0px" y="0px"
	 width="88px" height="23.292px" viewBox="0 0 88 23.292" style="enable-background:new 0 0 88 23.292;" xml:space="preserve">
<style type="text/css">
<![CDATA[
	.st0{fill:#498DCB;}
	.st1{fill:#F05B4E;}
	.st2{fill:#FFFFFF;}
	.st3{fill:#000018;}
]]>
</style>
<g>
	<g>
		<rect y="4.743" class="st1" width="14.347" height="14.346"/>
		<rect x="14.347" y="4.743" class="st3" width="14.348" height="14.346"/>
		<rect x="28.694" y="4.743" class="st0" width="14.346" height="14.346"/>
		<path class="st2" d="M8.568,15.576v-4.234c0-0.624-0.121-1.08-0.362-1.367C7.965,9.687,7.574,9.543,7.028,9.543
			c-0.251,0-0.521,0.071-0.807,0.213c-0.287,0.141-0.509,0.317-0.669,0.526v5.293H3.838V8.222h1.235l0.314,0.686
			c0.469-0.539,1.157-0.809,2.067-0.809c0.874,0,1.565,0.261,2.07,0.784c0.505,0.524,0.758,1.254,0.758,2.191v4.503H8.568V15.576z"
			/>
		<path class="st2" d="M21.001,9.565c0.79,0,1.356,0.176,1.698,0.53c0.341,0.354,0.513,0.965,0.513,1.831
			c0,0.814-0.172,1.408-0.517,1.785c-0.345,0.375-0.912,0.564-1.7,0.564c-0.416,0-0.779-0.125-1.088-0.376v-3.854
			C20.228,9.725,20.592,9.565,21.001,9.565z M21.385,15.72c1.122,0,2.006-0.324,2.653-0.975c0.648-0.648,0.973-1.574,0.973-2.778
			c0-2.58-1.172-3.87-3.517-3.87c-0.628,0-1.156,0.206-1.587,0.618V8.222h-1.714v10.225h1.714v-3.049
			C20.352,15.615,20.844,15.72,21.385,15.72z"/>
		<path class="st2" d="M37.764,9.833c-0.304-0.193-0.639-0.29-1.003-0.29c-0.396,0-0.748,0.18-1.055,0.54
			c-0.308,0.361-0.461,0.801-0.461,1.32v4.173H33.53V8.222h1.715v0.702c0.477-0.551,1.113-0.826,1.904-0.826
			c0.583,0,1.029,0.089,1.339,0.267L37.764,9.833z"/>
	</g>
	<g>
		<path class="st2" d="M61.628,7.433c-0.035,1.67-0.035,3.34-0.035,5.01c0,1.243,0.45,1.717,1.373,1.717
			c0.664,0,1.397-0.32,1.41-1.764l0.047-4.962h2.156l-0.048,5.211c-0.024,2.108-1.445,3.222-3.553,3.222
			c-2.037,0-3.541-0.924-3.541-3.258c0-1.954,0.024-3.565,0.049-5.175L61.628,7.433L61.628,7.433z"/>
		<path class="st2" d="M69.052,13.805c0.499,0.153,1.315,0.354,1.896,0.354c0.663,0,1.36-0.131,1.36-0.9
			c0-0.758-0.959-0.828-1.918-1.112s-1.93-0.781-1.93-2.369c0-1.764,1.775-2.581,3.328-2.581c0.912,0,1.764,0.213,2.604,0.533
			l-0.604,1.515c-0.543-0.202-1.29-0.344-1.729-0.344c-1.018,0-1.397,0.367-1.397,0.888c0,0.332,0.237,0.616,1.185,0.817
			c2.096,0.474,2.664,1.315,2.664,2.463c0,2.026-1.621,2.796-3.445,2.796c-0.853,0-1.74-0.189-2.547-0.462L69.052,13.805z"/>
		<path class="st2" d="M76.631,7.433h2.133l-0.072,8.195h-2.033L76.631,7.433z"/>
		<path class="st2" d="M87.348,9.329c-0.472-0.285-1.195-0.427-1.705-0.427c-1.551,0-2.711,1.031-2.711,2.605
			c0,1.481,0.924,2.653,2.476,2.653c0.84,0,1.183-0.213,1.835-0.426l0.629,1.525c-0.581,0.322-1.528,0.605-2.713,0.605
			c-2.76,0-4.43-1.753-4.43-4.406c0-2.558,1.719-4.263,4.703-4.263c1.111,0,2.023,0.248,2.568,0.592L87.348,9.329z"/>
	</g>
	<path class="st2" d="M55.316,7.414c-0.895,0-1.864,0.067-2.351,1.026c0.015-0.028-0.375-1.026-2.065-1.026
		c-0.875,0-1.5,0.247-2.008,0.852c0-0.237,0-0.497,0-0.795h-2.134v8.345h2.13v-5.591c0-0.01,0-0.022,0.002-0.326
		c0.192-0.31,0.635-0.493,0.98-0.493c0.453,0,1.082,0.257,1.082,0.87v5.54H53.1v-5.591c0-0.59,0.711-0.819,1.123-0.819
		s1.041,0.257,1.041,0.87v5.54h2.146V9.129C57.408,8.14,56.354,7.414,55.316,7.414z"/>
	<g>
		<path class="st2" d="M54.855,4.718c-0.883-0.206-1.785-0.31-2.705-0.31c-0.936,0-1.854,0.102-2.76,0.303
			c-0.902,0.203-1.779,0.519-2.629,0.948V4.293c0.803-0.49,1.652-0.87,2.547-1.138c0.897-0.271,1.803-0.404,2.724-0.404
			c0.436,0,0.895,0.032,1.372,0.094c0.48,0.062,0.955,0.157,1.428,0.286c0.471,0.128,0.93,0.29,1.373,0.486
			c0.443,0.193,0.85,0.42,1.215,0.677v1.379C56.596,5.242,55.741,4.926,54.855,4.718z"/>
	</g>
	<g>
		<path class="st2" d="M54.285,1.561c-0.701-0.163-1.417-0.246-2.146-0.246c-0.74,0-1.471,0.08-2.188,0.241
			c-0.717,0.161-1.413,0.411-2.086,0.752V1.222c0.636-0.388,1.31-0.69,2.021-0.901C50.596,0.106,51.316,0,52.046,0
			c0.347,0,0.709,0.024,1.089,0.073c0.381,0.05,0.758,0.126,1.131,0.228c0.375,0.101,0.738,0.23,1.09,0.384
			c0.353,0.154,0.674,0.334,0.965,0.537v1.095C55.664,1.976,54.986,1.726,54.285,1.561z"/>
	</g>
	<g>
		<path class="st2" d="M57.422,17.621V19c-0.367,0.256-0.773,0.482-1.215,0.676c-0.443,0.195-0.902,0.357-1.373,0.486
			c-0.473,0.129-0.947,0.223-1.427,0.284c-0.479,0.063-0.937,0.095-1.373,0.095c-0.921,0-1.826-0.135-2.724-0.403
			c-0.896-0.267-1.744-0.647-2.547-1.138v-1.367c0.85,0.428,1.727,0.744,2.629,0.947c0.904,0.203,1.824,0.303,2.76,0.303
			c0.918,0,1.822-0.102,2.705-0.309C55.741,18.367,56.596,18.048,57.422,17.621z"/>
	</g>
	<g>
		<path class="st2" d="M56.318,20.976v1.093c-0.289,0.203-0.611,0.384-0.963,0.537c-0.353,0.155-0.717,0.282-1.09,0.386
			c-0.373,0.102-0.752,0.176-1.132,0.225c-0.379,0.051-0.743,0.074-1.089,0.074c-0.73,0-1.449-0.105-2.16-0.319
			s-1.385-0.515-2.021-0.903v-1.084c0.674,0.34,1.369,0.59,2.087,0.751c0.717,0.16,1.446,0.241,2.188,0.241
			c0.729,0,1.444-0.082,2.146-0.245C54.986,21.567,55.664,21.315,56.318,20.976z"/>
	</g>
</g>
</svg>
