<?xml version="1.0" encoding="utf-8"?>
<!-- Generator: Adobe Illustrator 16.0.0, SVG Export Plug-In . SVG Version: 6.00 Build 0)  -->
<!DOCTYPE svg PUBLIC "-//W3C//DTD SVG 1.1//EN" "http://www.w3.org/Graphics/SVG/1.1/DTD/svg11.dtd">
<svg version="1.1" id="Layer_1" xmlns="http://www.w3.org/2000/svg" xmlns:xlink="http://www.w3.org/1999/xlink" x="0px" y="0px"
	 width="252px" height="168px" viewBox="1 1 252 168" enable-background="new 1 1 252 168" xml:space="preserve">
<g>
	<g>
		<g>
			<path d="M1,169C1,113,1,57,1,1c84,0,168,0,252,0c0,56,0,112,0,168C169,169,85,169,1,169z M52.731,46.752
				c-0.461-0.024-0.923-0.048-1.384-0.072c-0.725-2.127-1.673-4.207-2.133-6.39c-1.473-6.987-2.957-13.982-4.048-21.035
				c-0.565-3.654-1.87-5.958-5.829-5.948c-7.153,0.017-14.306,0.031-21.458,0.114c-4.691,0.054-5.393,2.239-3.902,6.46
				C19.784,36.33,24.864,53.05,31.149,69.308c3.638,9.411,4.491,18.07,0.041,27.27c-1.716,3.549-2.471,7.564-3.646,11.373
				c-4.361,14.125-8.571,28.3-13.155,42.354c-1.468,4.5-0.202,6.242,4.232,6.338c3.661,0.08,7.324,0.287,10.981,0.209
				c17.121-0.367,14.26,0.14,17.695-14.341c1.572-6.628,2.66-13.37,3.967-20.061c1.663,2.174,2.195,4.372,2.626,6.591
				c1.302,6.688,2.734,13.357,3.788,20.086c0.752,4.805,2.75,7.544,8.056,7.42c6.148-0.145,12.323,0.469,18.456,0.16
				c7.115-0.357,7.343-1,5.107-7.82c-6.521-19.891-13.016-39.791-19.604-59.658c-1.35-4.071-1.448-7.708,0.043-12.016
				c6.739-19.462,12.911-39.12,19.354-58.685c1.023-3.107,0.336-4.925-3.12-4.962c-7.641-0.082-15.283-0.104-22.924-0.057
				c-2.728,0.017-4.117,1.413-4.407,4.304c-0.331,3.294-1.124,6.546-1.804,9.799C55.499,33.999,54.103,40.373,52.731,46.752z
				 M135.43,122.428c0.365-0.002,0.73-0.004,1.096-0.006c0.461,2.057,0.976,4.104,1.373,6.17c1.354,7.016,2.746,14.024,3.969,21.062
				c0.751,4.322,2.604,6.936,7.503,6.834c6.478-0.137,12.981,0.475,19.44,0.128c6.637-0.355,6.808-1.007,4.756-7.247
				c-6.584-20.039-13.131-40.09-19.746-60.117c-1.273-3.857-1.647-7.341-0.202-11.523c6.772-19.618,12.998-39.425,19.526-59.128
				c1.183-3.568,0.004-5.023-3.513-5.105c-5.485-0.128-10.971-0.327-16.457-0.351c-9.778-0.043-9.655,0.024-11.354,9.503
				c-1.446,8.064-3.223,16.069-4.854,24.1c-0.475-0.008-0.949-0.016-1.426-0.024c-0.533-1.466-1.246-2.894-1.57-4.405
				c-1.676-7.786-3.479-15.556-4.758-23.409c-0.583-3.578-1.999-5.573-5.582-5.589c-7.315-0.032-14.631,0.068-21.947,0.151
				c-4.514,0.051-5.092,2.171-3.704,6.153c6.567,18.823,12.769,37.774,19.464,56.55c1.678,4.707,1.707,8.903,0.218,13.543
				c-6.497,20.247-12.74,40.575-19.269,60.812c-1.355,4.2-0.236,6.012,4.023,6.059c6.153,0.067,12.311-0.039,18.459,0.146
				c5.7,0.172,8.324-2.631,9.281-8.058C131.708,139.891,133.652,131.174,135.43,122.428z M180.932,84.484
				c0,21.807-0.015,43.614,0.008,65.42c0.008,5.769,1.016,6.916,6.521,6.938c15.814,0.068,31.629-0.022,47.441,0.066
				c3.029,0.017,4.887-0.945,4.914-4.123c0.061-7.151,0.057-14.306,0-21.455c-0.021-2.591-1.299-3.836-4.084-3.753
				c-4.989,0.148-9.988,0.115-14.979,0.015c-9.054-0.187-9.362-0.539-9.364-9.631c-0.006-32.627-0.087-65.255,0.092-97.881
				c0.025-4.61-1.377-6.93-6.013-6.947c-6.153-0.023-12.31-0.068-18.462,0.033c-4.43,0.073-6.238,2.108-6.184,6.896
				C181.07,41.535,180.932,63.01,180.932,84.484z"/>
			<path fill="#FFFFFF" d="M52.731,46.752c1.371-6.379,2.768-12.754,4.103-19.141c0.68-3.252,1.473-6.505,1.804-9.799
				c0.29-2.892,1.68-4.287,4.407-4.304c7.641-0.047,15.284-0.025,22.924,0.057c3.456,0.037,4.143,1.854,3.12,4.962
				C82.647,38.092,76.474,57.75,69.735,77.212c-1.492,4.308-1.394,7.943-0.043,12.015c6.588,19.868,13.083,39.77,19.604,59.659
				c2.236,6.82,2.008,7.464-5.107,7.82c-6.133,0.308-12.308-0.306-18.456-0.16c-5.306,0.124-7.304-2.616-8.056-7.42
				c-1.054-6.729-2.485-13.397-3.788-20.086c-0.432-2.22-0.963-4.417-2.626-6.591c-1.308,6.689-2.395,13.433-3.967,20.061
				c-3.435,14.479-0.574,13.973-17.695,14.34c-3.657,0.08-7.32-0.127-10.981-0.207c-4.434-0.097-5.7-1.838-4.232-6.34
				c4.584-14.053,8.794-28.228,13.155-42.353c1.176-3.81,1.93-7.824,3.646-11.373c4.451-9.2,3.598-17.859-0.041-27.27
				C24.864,53.05,19.784,36.33,13.977,19.881c-1.491-4.221-0.79-6.406,3.902-6.46c7.152-0.083,14.306-0.097,21.458-0.114
				c3.959-0.009,5.264,2.294,5.829,5.948c1.091,7.052,2.575,14.047,4.048,21.035c0.46,2.183,1.408,4.263,2.133,6.39
				C51.809,46.704,52.27,46.729,52.731,46.752z"/>
			<path fill="#FFFFFF" d="M135.43,122.428c-1.777,8.746-3.722,17.463-5.272,26.248c-0.957,5.426-3.581,8.229-9.281,8.059
				c-6.149-0.186-12.307-0.078-18.459-0.146c-4.259-0.047-5.378-1.857-4.023-6.059c6.529-20.236,12.772-40.564,19.269-60.812
				c1.489-4.641,1.46-8.836-0.218-13.543c-6.695-18.776-12.897-37.728-19.464-56.55c-1.389-3.981-0.81-6.102,3.704-6.153
				c7.316-0.083,14.632-0.183,21.947-0.151c3.583,0.016,4.999,2.011,5.582,5.589c1.277,7.854,3.082,15.624,4.759,23.409
				c0.323,1.511,1.036,2.939,1.569,4.405c0.476,0.008,0.951,0.016,1.426,0.024c1.632-8.031,3.406-16.036,4.853-24.1
				c1.701-9.479,1.578-9.546,11.355-9.503c5.486,0.024,10.973,0.223,16.457,0.351c3.518,0.082,4.694,1.537,3.512,5.105
				c-6.527,19.703-12.752,39.51-19.525,59.128c-1.445,4.182-1.071,7.667,0.203,11.523c6.615,20.026,13.162,40.078,19.746,60.117
				c2.051,6.241,1.879,6.892-4.756,7.247c-6.459,0.347-12.965-0.266-19.441-0.129c-4.9,0.103-6.752-2.512-7.503-6.834
				c-1.222-7.037-2.614-14.047-3.968-21.062c-0.398-2.067-0.912-4.112-1.373-6.17C136.16,122.424,135.795,122.426,135.43,122.428z"
				/>
			<path fill="#FFFFFF" d="M180.932,84.484c0-21.474,0.139-42.949-0.108-64.42c-0.056-4.789,1.754-6.824,6.184-6.896
				c6.152-0.101,12.31-0.056,18.462-0.033c4.635,0.017,6.038,2.337,6.014,6.947c-0.18,32.626-0.099,65.254-0.092,97.881
				c0,9.092,0.311,9.444,9.363,9.631c4.991,0.102,9.99,0.135,14.979-0.015c2.787-0.083,4.062,1.162,4.084,3.753
				c0.058,7.15,0.062,14.304,0,21.455c-0.026,3.178-1.885,4.14-4.912,4.123c-15.813-0.09-31.629,0.002-47.442-0.066
				c-5.507-0.022-6.515-1.171-6.521-6.938C180.917,128.098,180.932,106.291,180.932,84.484z"/>
		</g>
	</g>
</g>
</svg>
